%TF.GenerationSoftware,KiCad,Pcbnew,8.0.6*%
%TF.CreationDate,2024-10-30T10:49:26+05:30*%
%TF.ProjectId,bonk,626f6e6b-2e6b-4696-9361-645f70636258,rev?*%
%TF.SameCoordinates,Original*%
%TF.FileFunction,Paste,Bot*%
%TF.FilePolarity,Positive*%
%FSLAX46Y46*%
G04 Gerber Fmt 4.6, Leading zero omitted, Abs format (unit mm)*
G04 Created by KiCad (PCBNEW 8.0.6) date 2024-10-30 10:49:26*
%MOMM*%
%LPD*%
G01*
G04 APERTURE LIST*
G04 Aperture macros list*
%AMRoundRect*
0 Rectangle with rounded corners*
0 $1 Rounding radius*
0 $2 $3 $4 $5 $6 $7 $8 $9 X,Y pos of 4 corners*
0 Add a 4 corners polygon primitive as box body*
4,1,4,$2,$3,$4,$5,$6,$7,$8,$9,$2,$3,0*
0 Add four circle primitives for the rounded corners*
1,1,$1+$1,$2,$3*
1,1,$1+$1,$4,$5*
1,1,$1+$1,$6,$7*
1,1,$1+$1,$8,$9*
0 Add four rect primitives between the rounded corners*
20,1,$1+$1,$2,$3,$4,$5,0*
20,1,$1+$1,$4,$5,$6,$7,0*
20,1,$1+$1,$6,$7,$8,$9,0*
20,1,$1+$1,$8,$9,$2,$3,0*%
G04 Aperture macros list end*
%ADD10RoundRect,0.225000X0.375000X-0.225000X0.375000X0.225000X-0.375000X0.225000X-0.375000X-0.225000X0*%
%ADD11RoundRect,0.140000X0.021213X-0.219203X0.219203X-0.021213X-0.021213X0.219203X-0.219203X0.021213X0*%
%ADD12R,1.000000X0.750000*%
%ADD13RoundRect,0.225000X-0.225000X-0.250000X0.225000X-0.250000X0.225000X0.250000X-0.225000X0.250000X0*%
%ADD14RoundRect,0.140000X-0.219203X-0.021213X-0.021213X-0.219203X0.219203X0.021213X0.021213X0.219203X0*%
%ADD15RoundRect,0.200000X0.275000X-0.200000X0.275000X0.200000X-0.275000X0.200000X-0.275000X-0.200000X0*%
%ADD16RoundRect,0.075000X-0.415425X-0.521491X0.521491X0.415425X0.415425X0.521491X-0.521491X-0.415425X0*%
%ADD17RoundRect,0.075000X0.415425X-0.521491X0.521491X-0.415425X-0.415425X0.521491X-0.521491X0.415425X0*%
%ADD18RoundRect,0.140000X0.219203X0.021213X0.021213X0.219203X-0.219203X-0.021213X-0.021213X-0.219203X0*%
%ADD19RoundRect,0.140000X-0.021213X0.219203X-0.219203X0.021213X0.021213X-0.219203X0.219203X-0.021213X0*%
%ADD20RoundRect,0.225000X-0.017678X0.335876X-0.335876X0.017678X0.017678X-0.335876X0.335876X-0.017678X0*%
%ADD21RoundRect,0.150000X0.625000X-0.150000X0.625000X0.150000X-0.625000X0.150000X-0.625000X-0.150000X0*%
%ADD22RoundRect,0.250000X0.650000X-0.350000X0.650000X0.350000X-0.650000X0.350000X-0.650000X-0.350000X0*%
%ADD23RoundRect,0.225000X0.017678X-0.335876X0.335876X-0.017678X-0.017678X0.335876X-0.335876X0.017678X0*%
%ADD24RoundRect,0.225000X-0.250000X0.225000X-0.250000X-0.225000X0.250000X-0.225000X0.250000X0.225000X0*%
%ADD25RoundRect,0.225000X0.335876X0.017678X0.017678X0.335876X-0.335876X-0.017678X-0.017678X-0.335876X0*%
%ADD26RoundRect,0.150000X0.150000X-0.512500X0.150000X0.512500X-0.150000X0.512500X-0.150000X-0.512500X0*%
G04 APERTURE END LIST*
D10*
%TO.C,D5*%
X99317956Y-24705460D03*
X99317956Y-21405460D03*
%TD*%
%TO.C,D4*%
X80267956Y-24705460D03*
X80267956Y-21405460D03*
%TD*%
%TO.C,D41*%
X173235802Y-81855412D03*
X173235802Y-78555412D03*
%TD*%
D11*
%TO.C,C6*%
X217306250Y-53506250D03*
X217985072Y-52827428D03*
%TD*%
D12*
%TO.C,SW1*%
X235994338Y-52089810D03*
X241994338Y-52089810D03*
X235994338Y-48339810D03*
X241994338Y-48339810D03*
%TD*%
D10*
%TO.C,D18*%
X123130456Y-43755460D03*
X123130456Y-40455460D03*
%TD*%
D13*
%TO.C,C9*%
X176627986Y-39191386D03*
X178177986Y-39191386D03*
%TD*%
D14*
%TO.C,C2*%
X212006250Y-59606250D03*
X212685072Y-60285072D03*
%TD*%
D15*
%TO.C,R1*%
X233957626Y-52089810D03*
X233957626Y-50439810D03*
%TD*%
D16*
%TO.C,U2*%
X210607462Y-58794126D03*
X210253908Y-58440572D03*
X209900355Y-58087019D03*
X209546801Y-57733465D03*
X209193248Y-57379912D03*
X208839695Y-57026359D03*
X208486141Y-56672805D03*
X208132588Y-56319252D03*
X207779035Y-55965699D03*
X207425481Y-55612145D03*
X207071928Y-55258592D03*
X206718374Y-54905038D03*
D17*
X206718374Y-52907462D03*
X207071928Y-52553908D03*
X207425481Y-52200355D03*
X207779035Y-51846801D03*
X208132588Y-51493248D03*
X208486141Y-51139695D03*
X208839695Y-50786141D03*
X209193248Y-50432588D03*
X209546801Y-50079035D03*
X209900355Y-49725481D03*
X210253908Y-49371928D03*
X210607462Y-49018374D03*
D16*
X212605038Y-49018374D03*
X212958592Y-49371928D03*
X213312145Y-49725481D03*
X213665699Y-50079035D03*
X214019252Y-50432588D03*
X214372805Y-50786141D03*
X214726359Y-51139695D03*
X215079912Y-51493248D03*
X215433465Y-51846801D03*
X215787019Y-52200355D03*
X216140572Y-52553908D03*
X216494126Y-52907462D03*
D17*
X216494126Y-54905038D03*
X216140572Y-55258592D03*
X215787019Y-55612145D03*
X215433465Y-55965699D03*
X215079912Y-56319252D03*
X214726359Y-56672805D03*
X214372805Y-57026359D03*
X214019252Y-57379912D03*
X213665699Y-57733465D03*
X213312145Y-58087019D03*
X212958592Y-58440572D03*
X212605038Y-58794126D03*
%TD*%
D10*
%TO.C,D39*%
X99119458Y-81855412D03*
X99119458Y-78555412D03*
%TD*%
%TO.C,D14*%
X46930456Y-43755460D03*
X46930456Y-40455460D03*
%TD*%
%TO.C,D12*%
X237529534Y-24867160D03*
X237529534Y-21567160D03*
%TD*%
%TO.C,D40*%
X144660826Y-81917912D03*
X144660826Y-78617912D03*
%TD*%
%TO.C,D17*%
X104080456Y-43755460D03*
X104080456Y-40455460D03*
%TD*%
%TO.C,D22*%
X199330456Y-43755460D03*
X199330456Y-40455460D03*
%TD*%
D18*
%TO.C,C1*%
X211195661Y-48276165D03*
X210516839Y-47597343D03*
%TD*%
D10*
%TO.C,D37*%
X46732002Y-81917912D03*
X46732002Y-78617912D03*
%TD*%
%TO.C,D34*%
X232767002Y-62805460D03*
X232767002Y-59505460D03*
%TD*%
D11*
%TO.C,C10*%
X207027428Y-58985072D03*
X207706250Y-58306250D03*
%TD*%
D10*
%TO.C,D8*%
X156467956Y-24705460D03*
X156467956Y-21405460D03*
%TD*%
%TO.C,D42*%
X184844386Y-81855412D03*
X184844386Y-78555412D03*
%TD*%
%TO.C,D9*%
X175517956Y-24705460D03*
X175517956Y-21405460D03*
%TD*%
%TO.C,D3*%
X61217956Y-24705460D03*
X61217956Y-21405460D03*
%TD*%
%TO.C,D36*%
X32642958Y-81917912D03*
X32642958Y-78617912D03*
%TD*%
%TO.C,D44*%
X239811520Y-81855412D03*
X239811520Y-78555412D03*
%TD*%
D19*
%TO.C,C4*%
X206506250Y-57306250D03*
X205827428Y-57985072D03*
%TD*%
D10*
%TO.C,D32*%
X170556994Y-62805460D03*
X170556994Y-59505460D03*
%TD*%
%TO.C,D24*%
X15775778Y-62805460D03*
X15775778Y-59505460D03*
%TD*%
%TO.C,D10*%
X194567956Y-24705460D03*
X194567956Y-21405460D03*
%TD*%
%TO.C,D1*%
X35024206Y-24705460D03*
X35024206Y-21405460D03*
%TD*%
D20*
%TO.C,C5*%
X205581250Y-56381250D03*
X204485234Y-57477266D03*
%TD*%
D10*
%TO.C,D30*%
X132456994Y-62805460D03*
X132456994Y-59505460D03*
%TD*%
%TO.C,D19*%
X142180456Y-43755460D03*
X142180456Y-40455460D03*
%TD*%
D21*
%TO.C,J1*%
X200536562Y-32555460D03*
X200536562Y-31555460D03*
X200536562Y-30555460D03*
X200536562Y-29555460D03*
D22*
X196661562Y-33855460D03*
X196661562Y-28255460D03*
%TD*%
D10*
%TO.C,D29*%
X113406994Y-62805460D03*
X113406994Y-59505460D03*
%TD*%
%TO.C,D21*%
X180280456Y-43755460D03*
X180280456Y-40455460D03*
%TD*%
%TO.C,D43*%
X206275618Y-81855412D03*
X206275618Y-78555412D03*
%TD*%
%TO.C,D2*%
X42167956Y-24705460D03*
X42167956Y-21405460D03*
%TD*%
D23*
%TO.C,C7*%
X218033242Y-54629258D03*
X219129258Y-53533242D03*
%TD*%
D10*
%TO.C,D26*%
X56852306Y-62805460D03*
X56852306Y-59505460D03*
%TD*%
%TO.C,D20*%
X161230456Y-43755460D03*
X161230456Y-40455460D03*
%TD*%
%TO.C,D25*%
X53280434Y-62805460D03*
X53280434Y-59505460D03*
%TD*%
%TO.C,D31*%
X151506994Y-62805460D03*
X151506994Y-59505460D03*
%TD*%
%TO.C,D13*%
X37405456Y-43755460D03*
X37405456Y-40455460D03*
%TD*%
%TO.C,D16*%
X85030456Y-43755460D03*
X85030456Y-40455460D03*
%TD*%
%TO.C,D6*%
X118367956Y-24705460D03*
X118367956Y-21405460D03*
%TD*%
%TO.C,D7*%
X137417956Y-24705460D03*
X137417956Y-21405460D03*
%TD*%
%TO.C,D23*%
X230088134Y-43917128D03*
X230088134Y-40617128D03*
%TD*%
%TO.C,D33*%
X189606882Y-62805428D03*
X189606882Y-59505428D03*
%TD*%
%TO.C,D27*%
X75306994Y-62805460D03*
X75306994Y-59505460D03*
%TD*%
%TO.C,D11*%
X213617956Y-24705460D03*
X213617956Y-21405460D03*
%TD*%
D24*
%TO.C,C8*%
X180406250Y-34906250D03*
X180406250Y-36456250D03*
%TD*%
D10*
%TO.C,D15*%
X65980456Y-43755460D03*
X65980456Y-40455460D03*
%TD*%
%TO.C,D35*%
X242291994Y-62805460D03*
X242291994Y-59505460D03*
%TD*%
D25*
%TO.C,C3*%
X212327082Y-47584762D03*
X211231066Y-46488746D03*
%TD*%
D10*
%TO.C,D28*%
X94356994Y-62805460D03*
X94356994Y-59505460D03*
%TD*%
D26*
%TO.C,U1*%
X178352986Y-37181250D03*
X176452986Y-37181250D03*
X177402986Y-34906250D03*
%TD*%
D10*
%TO.C,D38*%
X68163234Y-81917912D03*
X68163234Y-78617912D03*
%TD*%
M02*
