%TF.GenerationSoftware,KiCad,Pcbnew,8.0.6*%
%TF.CreationDate,2024-10-30T10:49:26+05:30*%
%TF.ProjectId,bonk,626f6e6b-2e6b-4696-9361-645f70636258,rev?*%
%TF.SameCoordinates,Original*%
%TF.FileFunction,Legend,Top*%
%TF.FilePolarity,Positive*%
%FSLAX46Y46*%
G04 Gerber Fmt 4.6, Leading zero omitted, Abs format (unit mm)*
G04 Created by KiCad (PCBNEW 8.0.6) date 2024-10-30 10:49:26*
%MOMM*%
%LPD*%
G01*
G04 APERTURE LIST*
%ADD10C,0.150000*%
%ADD11C,1.750000*%
%ADD12C,3.987800*%
G04 APERTURE END LIST*
D10*
X237386887Y-44281763D02*
X237720220Y-44281763D01*
X237797601Y-44805573D02*
X237321410Y-44805573D01*
X237321410Y-44805573D02*
X237446410Y-43805573D01*
X237446410Y-43805573D02*
X237922601Y-43805573D01*
X238309506Y-44138906D02*
X238226172Y-44805573D01*
X238297601Y-44234144D02*
X238351172Y-44186525D01*
X238351172Y-44186525D02*
X238452363Y-44138906D01*
X238452363Y-44138906D02*
X238595220Y-44138906D01*
X238595220Y-44138906D02*
X238684506Y-44186525D01*
X238684506Y-44186525D02*
X238720220Y-44281763D01*
X238720220Y-44281763D02*
X238654744Y-44805573D01*
X239071411Y-44138906D02*
X239452363Y-44138906D01*
X239255934Y-43805573D02*
X239148792Y-44662715D01*
X239148792Y-44662715D02*
X239184506Y-44757954D01*
X239184506Y-44757954D02*
X239273792Y-44805573D01*
X239273792Y-44805573D02*
X239369030Y-44805573D01*
X240089268Y-44757954D02*
X239988078Y-44805573D01*
X239988078Y-44805573D02*
X239797601Y-44805573D01*
X239797601Y-44805573D02*
X239708316Y-44757954D01*
X239708316Y-44757954D02*
X239672601Y-44662715D01*
X239672601Y-44662715D02*
X239720221Y-44281763D01*
X239720221Y-44281763D02*
X239779744Y-44186525D01*
X239779744Y-44186525D02*
X239880935Y-44138906D01*
X239880935Y-44138906D02*
X240071411Y-44138906D01*
X240071411Y-44138906D02*
X240160697Y-44186525D01*
X240160697Y-44186525D02*
X240196411Y-44281763D01*
X240196411Y-44281763D02*
X240184506Y-44377001D01*
X240184506Y-44377001D02*
X239696411Y-44472239D01*
X240559506Y-44805573D02*
X240642840Y-44138906D01*
X240619030Y-44329382D02*
X240678554Y-44234144D01*
X240678554Y-44234144D02*
X240732125Y-44186525D01*
X240732125Y-44186525D02*
X240833316Y-44138906D01*
X240833316Y-44138906D02*
X240928554Y-44138906D01*
X194792219Y-82905541D02*
X194220790Y-82905541D01*
X194506505Y-82905541D02*
X194631505Y-81905541D01*
X194631505Y-81905541D02*
X194518409Y-82048398D01*
X194518409Y-82048398D02*
X194411267Y-82143636D01*
X194411267Y-82143636D02*
X194310076Y-82191255D01*
X195232695Y-82810302D02*
X195274362Y-82857922D01*
X195274362Y-82857922D02*
X195220790Y-82905541D01*
X195220790Y-82905541D02*
X195179124Y-82857922D01*
X195179124Y-82857922D02*
X195232695Y-82810302D01*
X195232695Y-82810302D02*
X195220790Y-82905541D01*
X195762457Y-82000779D02*
X195816028Y-81953160D01*
X195816028Y-81953160D02*
X195917218Y-81905541D01*
X195917218Y-81905541D02*
X196155314Y-81905541D01*
X196155314Y-81905541D02*
X196244599Y-81953160D01*
X196244599Y-81953160D02*
X196286266Y-82000779D01*
X196286266Y-82000779D02*
X196321980Y-82096017D01*
X196321980Y-82096017D02*
X196310076Y-82191255D01*
X196310076Y-82191255D02*
X196244599Y-82334112D01*
X196244599Y-82334112D02*
X195601742Y-82905541D01*
X195601742Y-82905541D02*
X196220790Y-82905541D01*
X197250552Y-81905541D02*
X196774361Y-81905541D01*
X196774361Y-81905541D02*
X196667219Y-82381731D01*
X196667219Y-82381731D02*
X196720790Y-82334112D01*
X196720790Y-82334112D02*
X196821980Y-82286493D01*
X196821980Y-82286493D02*
X197060076Y-82286493D01*
X197060076Y-82286493D02*
X197149361Y-82334112D01*
X197149361Y-82334112D02*
X197191028Y-82381731D01*
X197191028Y-82381731D02*
X197226742Y-82476969D01*
X197226742Y-82476969D02*
X197196980Y-82715064D01*
X197196980Y-82715064D02*
X197137457Y-82810302D01*
X197137457Y-82810302D02*
X197083885Y-82857922D01*
X197083885Y-82857922D02*
X196982695Y-82905541D01*
X196982695Y-82905541D02*
X196744599Y-82905541D01*
X196744599Y-82905541D02*
X196655314Y-82857922D01*
X196655314Y-82857922D02*
X196613647Y-82810302D01*
X198113647Y-82238874D02*
X198030314Y-82905541D01*
X197685076Y-82238874D02*
X197619600Y-82762683D01*
X197619600Y-82762683D02*
X197655314Y-82857922D01*
X197655314Y-82857922D02*
X197744600Y-82905541D01*
X197744600Y-82905541D02*
X197887457Y-82905541D01*
X197887457Y-82905541D02*
X197988647Y-82857922D01*
X197988647Y-82857922D02*
X198042219Y-82810302D01*
X75729819Y-82905541D02*
X75158390Y-82905541D01*
X75444105Y-82905541D02*
X75569105Y-81905541D01*
X75569105Y-81905541D02*
X75456009Y-82048398D01*
X75456009Y-82048398D02*
X75348867Y-82143636D01*
X75348867Y-82143636D02*
X75247676Y-82191255D01*
X76170295Y-82810302D02*
X76211962Y-82857922D01*
X76211962Y-82857922D02*
X76158390Y-82905541D01*
X76158390Y-82905541D02*
X76116724Y-82857922D01*
X76116724Y-82857922D02*
X76170295Y-82810302D01*
X76170295Y-82810302D02*
X76158390Y-82905541D01*
X76700057Y-82000779D02*
X76753628Y-81953160D01*
X76753628Y-81953160D02*
X76854818Y-81905541D01*
X76854818Y-81905541D02*
X77092914Y-81905541D01*
X77092914Y-81905541D02*
X77182199Y-81953160D01*
X77182199Y-81953160D02*
X77223866Y-82000779D01*
X77223866Y-82000779D02*
X77259580Y-82096017D01*
X77259580Y-82096017D02*
X77247676Y-82191255D01*
X77247676Y-82191255D02*
X77182199Y-82334112D01*
X77182199Y-82334112D02*
X76539342Y-82905541D01*
X76539342Y-82905541D02*
X77158390Y-82905541D01*
X78188152Y-81905541D02*
X77711961Y-81905541D01*
X77711961Y-81905541D02*
X77604819Y-82381731D01*
X77604819Y-82381731D02*
X77658390Y-82334112D01*
X77658390Y-82334112D02*
X77759580Y-82286493D01*
X77759580Y-82286493D02*
X77997676Y-82286493D01*
X77997676Y-82286493D02*
X78086961Y-82334112D01*
X78086961Y-82334112D02*
X78128628Y-82381731D01*
X78128628Y-82381731D02*
X78164342Y-82476969D01*
X78164342Y-82476969D02*
X78134580Y-82715064D01*
X78134580Y-82715064D02*
X78075057Y-82810302D01*
X78075057Y-82810302D02*
X78021485Y-82857922D01*
X78021485Y-82857922D02*
X77920295Y-82905541D01*
X77920295Y-82905541D02*
X77682199Y-82905541D01*
X77682199Y-82905541D02*
X77592914Y-82857922D01*
X77592914Y-82857922D02*
X77551247Y-82810302D01*
X79051247Y-82238874D02*
X78967914Y-82905541D01*
X78622676Y-82238874D02*
X78557200Y-82762683D01*
X78557200Y-82762683D02*
X78592914Y-82857922D01*
X78592914Y-82857922D02*
X78682200Y-82905541D01*
X78682200Y-82905541D02*
X78825057Y-82905541D01*
X78825057Y-82905541D02*
X78926247Y-82857922D01*
X78926247Y-82857922D02*
X78979819Y-82810302D01*
X23342363Y-63855557D02*
X22770934Y-63855557D01*
X23056649Y-63855557D02*
X23181649Y-62855557D01*
X23181649Y-62855557D02*
X23068553Y-62998414D01*
X23068553Y-62998414D02*
X22961411Y-63093652D01*
X22961411Y-63093652D02*
X22860220Y-63141271D01*
X23782839Y-63760318D02*
X23824506Y-63807938D01*
X23824506Y-63807938D02*
X23770934Y-63855557D01*
X23770934Y-63855557D02*
X23729268Y-63807938D01*
X23729268Y-63807938D02*
X23782839Y-63760318D01*
X23782839Y-63760318D02*
X23770934Y-63855557D01*
X24312601Y-62950795D02*
X24366172Y-62903176D01*
X24366172Y-62903176D02*
X24467362Y-62855557D01*
X24467362Y-62855557D02*
X24705458Y-62855557D01*
X24705458Y-62855557D02*
X24794743Y-62903176D01*
X24794743Y-62903176D02*
X24836410Y-62950795D01*
X24836410Y-62950795D02*
X24872124Y-63046033D01*
X24872124Y-63046033D02*
X24860220Y-63141271D01*
X24860220Y-63141271D02*
X24794743Y-63284128D01*
X24794743Y-63284128D02*
X24151886Y-63855557D01*
X24151886Y-63855557D02*
X24770934Y-63855557D01*
X25800696Y-62855557D02*
X25324505Y-62855557D01*
X25324505Y-62855557D02*
X25217363Y-63331747D01*
X25217363Y-63331747D02*
X25270934Y-63284128D01*
X25270934Y-63284128D02*
X25372124Y-63236509D01*
X25372124Y-63236509D02*
X25610220Y-63236509D01*
X25610220Y-63236509D02*
X25699505Y-63284128D01*
X25699505Y-63284128D02*
X25741172Y-63331747D01*
X25741172Y-63331747D02*
X25776886Y-63426985D01*
X25776886Y-63426985D02*
X25747124Y-63665080D01*
X25747124Y-63665080D02*
X25687601Y-63760318D01*
X25687601Y-63760318D02*
X25634029Y-63807938D01*
X25634029Y-63807938D02*
X25532839Y-63855557D01*
X25532839Y-63855557D02*
X25294743Y-63855557D01*
X25294743Y-63855557D02*
X25205458Y-63807938D01*
X25205458Y-63807938D02*
X25163791Y-63760318D01*
X26663791Y-63188890D02*
X26580458Y-63855557D01*
X26235220Y-63188890D02*
X26169744Y-63712699D01*
X26169744Y-63712699D02*
X26205458Y-63807938D01*
X26205458Y-63807938D02*
X26294744Y-63855557D01*
X26294744Y-63855557D02*
X26437601Y-63855557D01*
X26437601Y-63855557D02*
X26538791Y-63807938D01*
X26538791Y-63807938D02*
X26592363Y-63760318D01*
X106525218Y-82000779D02*
X106578789Y-81953160D01*
X106578789Y-81953160D02*
X106679979Y-81905541D01*
X106679979Y-81905541D02*
X106918075Y-81905541D01*
X106918075Y-81905541D02*
X107007360Y-81953160D01*
X107007360Y-81953160D02*
X107049027Y-82000779D01*
X107049027Y-82000779D02*
X107084741Y-82096017D01*
X107084741Y-82096017D02*
X107072837Y-82191255D01*
X107072837Y-82191255D02*
X107007360Y-82334112D01*
X107007360Y-82334112D02*
X106364503Y-82905541D01*
X106364503Y-82905541D02*
X106983551Y-82905541D01*
X107924027Y-82238874D02*
X107840694Y-82905541D01*
X107495456Y-82238874D02*
X107429980Y-82762683D01*
X107429980Y-82762683D02*
X107465694Y-82857922D01*
X107465694Y-82857922D02*
X107554980Y-82905541D01*
X107554980Y-82905541D02*
X107697837Y-82905541D01*
X107697837Y-82905541D02*
X107799027Y-82857922D01*
X107799027Y-82857922D02*
X107852599Y-82810302D01*
X156233918Y-82000779D02*
X156287489Y-81953160D01*
X156287489Y-81953160D02*
X156388679Y-81905541D01*
X156388679Y-81905541D02*
X156626775Y-81905541D01*
X156626775Y-81905541D02*
X156716060Y-81953160D01*
X156716060Y-81953160D02*
X156757727Y-82000779D01*
X156757727Y-82000779D02*
X156793441Y-82096017D01*
X156793441Y-82096017D02*
X156781537Y-82191255D01*
X156781537Y-82191255D02*
X156716060Y-82334112D01*
X156716060Y-82334112D02*
X156073203Y-82905541D01*
X156073203Y-82905541D02*
X156692251Y-82905541D01*
X157132727Y-82810302D02*
X157174394Y-82857922D01*
X157174394Y-82857922D02*
X157120822Y-82905541D01*
X157120822Y-82905541D02*
X157079156Y-82857922D01*
X157079156Y-82857922D02*
X157132727Y-82810302D01*
X157132727Y-82810302D02*
X157120822Y-82905541D01*
X157626774Y-81905541D02*
X158293441Y-81905541D01*
X158293441Y-81905541D02*
X157739870Y-82905541D01*
X159150584Y-81905541D02*
X158674393Y-81905541D01*
X158674393Y-81905541D02*
X158567251Y-82381731D01*
X158567251Y-82381731D02*
X158620822Y-82334112D01*
X158620822Y-82334112D02*
X158722012Y-82286493D01*
X158722012Y-82286493D02*
X158960108Y-82286493D01*
X158960108Y-82286493D02*
X159049393Y-82334112D01*
X159049393Y-82334112D02*
X159091060Y-82381731D01*
X159091060Y-82381731D02*
X159126774Y-82476969D01*
X159126774Y-82476969D02*
X159097012Y-82715064D01*
X159097012Y-82715064D02*
X159037489Y-82810302D01*
X159037489Y-82810302D02*
X158983917Y-82857922D01*
X158983917Y-82857922D02*
X158882727Y-82905541D01*
X158882727Y-82905541D02*
X158644631Y-82905541D01*
X158644631Y-82905541D02*
X158555346Y-82857922D01*
X158555346Y-82857922D02*
X158513679Y-82810302D01*
X160013679Y-82238874D02*
X159930346Y-82905541D01*
X159585108Y-82238874D02*
X159519632Y-82762683D01*
X159519632Y-82762683D02*
X159555346Y-82857922D01*
X159555346Y-82857922D02*
X159644632Y-82905541D01*
X159644632Y-82905541D02*
X159787489Y-82905541D01*
X159787489Y-82905541D02*
X159888679Y-82857922D01*
X159888679Y-82857922D02*
X159942251Y-82810302D01*
X223057671Y-63855557D02*
X222783861Y-63379366D01*
X222486242Y-63855557D02*
X222611242Y-62855557D01*
X222611242Y-62855557D02*
X222992195Y-62855557D01*
X222992195Y-62855557D02*
X223081480Y-62903176D01*
X223081480Y-62903176D02*
X223123147Y-62950795D01*
X223123147Y-62950795D02*
X223158861Y-63046033D01*
X223158861Y-63046033D02*
X223141004Y-63188890D01*
X223141004Y-63188890D02*
X223081480Y-63284128D01*
X223081480Y-63284128D02*
X223027909Y-63331747D01*
X223027909Y-63331747D02*
X222926719Y-63379366D01*
X222926719Y-63379366D02*
X222545766Y-63379366D01*
X223498147Y-63760318D02*
X223539814Y-63807938D01*
X223539814Y-63807938D02*
X223486242Y-63855557D01*
X223486242Y-63855557D02*
X223444576Y-63807938D01*
X223444576Y-63807938D02*
X223498147Y-63760318D01*
X223498147Y-63760318D02*
X223486242Y-63855557D01*
X223920766Y-63807938D02*
X224057670Y-63855557D01*
X224057670Y-63855557D02*
X224295766Y-63855557D01*
X224295766Y-63855557D02*
X224396956Y-63807938D01*
X224396956Y-63807938D02*
X224450528Y-63760318D01*
X224450528Y-63760318D02*
X224510051Y-63665080D01*
X224510051Y-63665080D02*
X224521956Y-63569842D01*
X224521956Y-63569842D02*
X224486242Y-63474604D01*
X224486242Y-63474604D02*
X224444575Y-63426985D01*
X224444575Y-63426985D02*
X224355290Y-63379366D01*
X224355290Y-63379366D02*
X224170766Y-63331747D01*
X224170766Y-63331747D02*
X224081480Y-63284128D01*
X224081480Y-63284128D02*
X224039813Y-63236509D01*
X224039813Y-63236509D02*
X224004099Y-63141271D01*
X224004099Y-63141271D02*
X224016004Y-63046033D01*
X224016004Y-63046033D02*
X224075528Y-62950795D01*
X224075528Y-62950795D02*
X224129099Y-62903176D01*
X224129099Y-62903176D02*
X224230290Y-62855557D01*
X224230290Y-62855557D02*
X224468385Y-62855557D01*
X224468385Y-62855557D02*
X224605290Y-62903176D01*
X224914813Y-63855557D02*
X225039813Y-62855557D01*
X225343385Y-63855557D02*
X225408861Y-63331747D01*
X225408861Y-63331747D02*
X225373147Y-63236509D01*
X225373147Y-63236509D02*
X225283861Y-63188890D01*
X225283861Y-63188890D02*
X225141004Y-63188890D01*
X225141004Y-63188890D02*
X225039813Y-63236509D01*
X225039813Y-63236509D02*
X224986242Y-63284128D01*
X225819575Y-63855557D02*
X225902909Y-63188890D01*
X225944575Y-62855557D02*
X225891004Y-62903176D01*
X225891004Y-62903176D02*
X225932671Y-62950795D01*
X225932671Y-62950795D02*
X225986242Y-62903176D01*
X225986242Y-62903176D02*
X225944575Y-62855557D01*
X225944575Y-62855557D02*
X225932671Y-62950795D01*
X226236242Y-63188890D02*
X226617194Y-63188890D01*
X226295765Y-63855557D02*
X226402908Y-62998414D01*
X226402908Y-62998414D02*
X226462432Y-62903176D01*
X226462432Y-62903176D02*
X226563623Y-62855557D01*
X226563623Y-62855557D02*
X226658861Y-62855557D01*
X226807671Y-63188890D02*
X227188623Y-63188890D01*
X226992194Y-62855557D02*
X226885052Y-63712699D01*
X226885052Y-63712699D02*
X226920766Y-63807938D01*
X226920766Y-63807938D02*
X227010052Y-63855557D01*
X227010052Y-63855557D02*
X227105290Y-63855557D01*
X123384541Y-81905541D02*
X123194065Y-81905541D01*
X123194065Y-81905541D02*
X123092874Y-81953160D01*
X123092874Y-81953160D02*
X123039303Y-82000779D01*
X123039303Y-82000779D02*
X122926207Y-82143636D01*
X122926207Y-82143636D02*
X122854779Y-82334112D01*
X122854779Y-82334112D02*
X122807160Y-82715064D01*
X122807160Y-82715064D02*
X122842874Y-82810302D01*
X122842874Y-82810302D02*
X122884541Y-82857922D01*
X122884541Y-82857922D02*
X122973827Y-82905541D01*
X122973827Y-82905541D02*
X123164303Y-82905541D01*
X123164303Y-82905541D02*
X123265493Y-82857922D01*
X123265493Y-82857922D02*
X123319065Y-82810302D01*
X123319065Y-82810302D02*
X123378588Y-82715064D01*
X123378588Y-82715064D02*
X123408350Y-82476969D01*
X123408350Y-82476969D02*
X123372636Y-82381731D01*
X123372636Y-82381731D02*
X123330969Y-82334112D01*
X123330969Y-82334112D02*
X123241684Y-82286493D01*
X123241684Y-82286493D02*
X123051207Y-82286493D01*
X123051207Y-82286493D02*
X122950017Y-82334112D01*
X122950017Y-82334112D02*
X122896446Y-82381731D01*
X122896446Y-82381731D02*
X122836922Y-82476969D01*
X123795255Y-82810302D02*
X123836922Y-82857922D01*
X123836922Y-82857922D02*
X123783350Y-82905541D01*
X123783350Y-82905541D02*
X123741684Y-82857922D01*
X123741684Y-82857922D02*
X123795255Y-82810302D01*
X123795255Y-82810302D02*
X123783350Y-82905541D01*
X124325017Y-82000779D02*
X124378588Y-81953160D01*
X124378588Y-81953160D02*
X124479778Y-81905541D01*
X124479778Y-81905541D02*
X124717874Y-81905541D01*
X124717874Y-81905541D02*
X124807159Y-81953160D01*
X124807159Y-81953160D02*
X124848826Y-82000779D01*
X124848826Y-82000779D02*
X124884540Y-82096017D01*
X124884540Y-82096017D02*
X124872636Y-82191255D01*
X124872636Y-82191255D02*
X124807159Y-82334112D01*
X124807159Y-82334112D02*
X124164302Y-82905541D01*
X124164302Y-82905541D02*
X124783350Y-82905541D01*
X125813112Y-81905541D02*
X125336921Y-81905541D01*
X125336921Y-81905541D02*
X125229779Y-82381731D01*
X125229779Y-82381731D02*
X125283350Y-82334112D01*
X125283350Y-82334112D02*
X125384540Y-82286493D01*
X125384540Y-82286493D02*
X125622636Y-82286493D01*
X125622636Y-82286493D02*
X125711921Y-82334112D01*
X125711921Y-82334112D02*
X125753588Y-82381731D01*
X125753588Y-82381731D02*
X125789302Y-82476969D01*
X125789302Y-82476969D02*
X125759540Y-82715064D01*
X125759540Y-82715064D02*
X125700017Y-82810302D01*
X125700017Y-82810302D02*
X125646445Y-82857922D01*
X125646445Y-82857922D02*
X125545255Y-82905541D01*
X125545255Y-82905541D02*
X125307159Y-82905541D01*
X125307159Y-82905541D02*
X125217874Y-82857922D01*
X125217874Y-82857922D02*
X125176207Y-82810302D01*
X126676207Y-82238874D02*
X126592874Y-82905541D01*
X126247636Y-82238874D02*
X126182160Y-82762683D01*
X126182160Y-82762683D02*
X126217874Y-82857922D01*
X126217874Y-82857922D02*
X126307160Y-82905541D01*
X126307160Y-82905541D02*
X126450017Y-82905541D01*
X126450017Y-82905541D02*
X126551207Y-82857922D01*
X126551207Y-82857922D02*
X126604779Y-82810302D01*
X32557829Y-63943553D02*
X32081638Y-63943553D01*
X32081638Y-63943553D02*
X32206638Y-62943553D01*
X32903067Y-63848314D02*
X32944734Y-63895934D01*
X32944734Y-63895934D02*
X32891162Y-63943553D01*
X32891162Y-63943553D02*
X32849496Y-63895934D01*
X32849496Y-63895934D02*
X32903067Y-63848314D01*
X32903067Y-63848314D02*
X32891162Y-63943553D01*
X33325686Y-63895934D02*
X33462590Y-63943553D01*
X33462590Y-63943553D02*
X33700686Y-63943553D01*
X33700686Y-63943553D02*
X33801876Y-63895934D01*
X33801876Y-63895934D02*
X33855448Y-63848314D01*
X33855448Y-63848314D02*
X33914971Y-63753076D01*
X33914971Y-63753076D02*
X33926876Y-63657838D01*
X33926876Y-63657838D02*
X33891162Y-63562600D01*
X33891162Y-63562600D02*
X33849495Y-63514981D01*
X33849495Y-63514981D02*
X33760210Y-63467362D01*
X33760210Y-63467362D02*
X33575686Y-63419743D01*
X33575686Y-63419743D02*
X33486400Y-63372124D01*
X33486400Y-63372124D02*
X33444733Y-63324505D01*
X33444733Y-63324505D02*
X33409019Y-63229267D01*
X33409019Y-63229267D02*
X33420924Y-63134029D01*
X33420924Y-63134029D02*
X33480448Y-63038791D01*
X33480448Y-63038791D02*
X33534019Y-62991172D01*
X33534019Y-62991172D02*
X33635210Y-62943553D01*
X33635210Y-62943553D02*
X33873305Y-62943553D01*
X33873305Y-62943553D02*
X34010210Y-62991172D01*
X34319733Y-63943553D02*
X34444733Y-62943553D01*
X34748305Y-63943553D02*
X34813781Y-63419743D01*
X34813781Y-63419743D02*
X34778067Y-63324505D01*
X34778067Y-63324505D02*
X34688781Y-63276886D01*
X34688781Y-63276886D02*
X34545924Y-63276886D01*
X34545924Y-63276886D02*
X34444733Y-63324505D01*
X34444733Y-63324505D02*
X34391162Y-63372124D01*
X35224495Y-63943553D02*
X35307829Y-63276886D01*
X35349495Y-62943553D02*
X35295924Y-62991172D01*
X35295924Y-62991172D02*
X35337591Y-63038791D01*
X35337591Y-63038791D02*
X35391162Y-62991172D01*
X35391162Y-62991172D02*
X35349495Y-62943553D01*
X35349495Y-62943553D02*
X35337591Y-63038791D01*
X35641162Y-63276886D02*
X36022114Y-63276886D01*
X35700685Y-63943553D02*
X35807828Y-63086410D01*
X35807828Y-63086410D02*
X35867352Y-62991172D01*
X35867352Y-62991172D02*
X35968543Y-62943553D01*
X35968543Y-62943553D02*
X36063781Y-62943553D01*
X36212591Y-63276886D02*
X36593543Y-63276886D01*
X36397114Y-62943553D02*
X36289972Y-63800695D01*
X36289972Y-63800695D02*
X36325686Y-63895934D01*
X36325686Y-63895934D02*
X36414972Y-63943553D01*
X36414972Y-63943553D02*
X36510210Y-63943553D01*
X32409020Y-64648735D02*
X32462591Y-64601116D01*
X32462591Y-64601116D02*
X32563781Y-64553497D01*
X32563781Y-64553497D02*
X32801877Y-64553497D01*
X32801877Y-64553497D02*
X32891162Y-64601116D01*
X32891162Y-64601116D02*
X32932829Y-64648735D01*
X32932829Y-64648735D02*
X32968543Y-64743973D01*
X32968543Y-64743973D02*
X32956639Y-64839211D01*
X32956639Y-64839211D02*
X32891162Y-64982068D01*
X32891162Y-64982068D02*
X32248305Y-65553497D01*
X32248305Y-65553497D02*
X32867353Y-65553497D01*
X33307829Y-65458258D02*
X33349496Y-65505878D01*
X33349496Y-65505878D02*
X33295924Y-65553497D01*
X33295924Y-65553497D02*
X33254258Y-65505878D01*
X33254258Y-65505878D02*
X33307829Y-65458258D01*
X33307829Y-65458258D02*
X33295924Y-65553497D01*
X33837591Y-64648735D02*
X33891162Y-64601116D01*
X33891162Y-64601116D02*
X33992352Y-64553497D01*
X33992352Y-64553497D02*
X34230448Y-64553497D01*
X34230448Y-64553497D02*
X34319733Y-64601116D01*
X34319733Y-64601116D02*
X34361400Y-64648735D01*
X34361400Y-64648735D02*
X34397114Y-64743973D01*
X34397114Y-64743973D02*
X34385210Y-64839211D01*
X34385210Y-64839211D02*
X34319733Y-64982068D01*
X34319733Y-64982068D02*
X33676876Y-65553497D01*
X33676876Y-65553497D02*
X34295924Y-65553497D01*
X35325686Y-64553497D02*
X34849495Y-64553497D01*
X34849495Y-64553497D02*
X34742353Y-65029687D01*
X34742353Y-65029687D02*
X34795924Y-64982068D01*
X34795924Y-64982068D02*
X34897114Y-64934449D01*
X34897114Y-64934449D02*
X35135210Y-64934449D01*
X35135210Y-64934449D02*
X35224495Y-64982068D01*
X35224495Y-64982068D02*
X35266162Y-65029687D01*
X35266162Y-65029687D02*
X35301876Y-65124925D01*
X35301876Y-65124925D02*
X35272114Y-65363020D01*
X35272114Y-65363020D02*
X35212591Y-65458258D01*
X35212591Y-65458258D02*
X35159019Y-65505878D01*
X35159019Y-65505878D02*
X35057829Y-65553497D01*
X35057829Y-65553497D02*
X34819733Y-65553497D01*
X34819733Y-65553497D02*
X34730448Y-65505878D01*
X34730448Y-65505878D02*
X34688781Y-65458258D01*
X36188781Y-64886830D02*
X36105448Y-65553497D01*
X35760210Y-64886830D02*
X35694734Y-65410639D01*
X35694734Y-65410639D02*
X35730448Y-65505878D01*
X35730448Y-65505878D02*
X35819734Y-65553497D01*
X35819734Y-65553497D02*
X35962591Y-65553497D01*
X35962591Y-65553497D02*
X36063781Y-65505878D01*
X36063781Y-65505878D02*
X36117353Y-65458258D01*
X135957447Y-81905541D02*
X136624114Y-81905541D01*
X136624114Y-81905541D02*
X136070543Y-82905541D01*
X137391971Y-82238874D02*
X137308638Y-82905541D01*
X136963400Y-82238874D02*
X136897924Y-82762683D01*
X136897924Y-82762683D02*
X136933638Y-82857922D01*
X136933638Y-82857922D02*
X137022924Y-82905541D01*
X137022924Y-82905541D02*
X137165781Y-82905541D01*
X137165781Y-82905541D02*
X137266971Y-82857922D01*
X137266971Y-82857922D02*
X137320543Y-82810302D01*
X213842203Y-82905541D02*
X213270774Y-82905541D01*
X213556489Y-82905541D02*
X213681489Y-81905541D01*
X213681489Y-81905541D02*
X213568393Y-82048398D01*
X213568393Y-82048398D02*
X213461251Y-82143636D01*
X213461251Y-82143636D02*
X213360060Y-82191255D01*
X214282679Y-82810302D02*
X214324346Y-82857922D01*
X214324346Y-82857922D02*
X214270774Y-82905541D01*
X214270774Y-82905541D02*
X214229108Y-82857922D01*
X214229108Y-82857922D02*
X214282679Y-82810302D01*
X214282679Y-82810302D02*
X214270774Y-82905541D01*
X214812441Y-82000779D02*
X214866012Y-81953160D01*
X214866012Y-81953160D02*
X214967202Y-81905541D01*
X214967202Y-81905541D02*
X215205298Y-81905541D01*
X215205298Y-81905541D02*
X215294583Y-81953160D01*
X215294583Y-81953160D02*
X215336250Y-82000779D01*
X215336250Y-82000779D02*
X215371964Y-82096017D01*
X215371964Y-82096017D02*
X215360060Y-82191255D01*
X215360060Y-82191255D02*
X215294583Y-82334112D01*
X215294583Y-82334112D02*
X214651726Y-82905541D01*
X214651726Y-82905541D02*
X215270774Y-82905541D01*
X216300536Y-81905541D02*
X215824345Y-81905541D01*
X215824345Y-81905541D02*
X215717203Y-82381731D01*
X215717203Y-82381731D02*
X215770774Y-82334112D01*
X215770774Y-82334112D02*
X215871964Y-82286493D01*
X215871964Y-82286493D02*
X216110060Y-82286493D01*
X216110060Y-82286493D02*
X216199345Y-82334112D01*
X216199345Y-82334112D02*
X216241012Y-82381731D01*
X216241012Y-82381731D02*
X216276726Y-82476969D01*
X216276726Y-82476969D02*
X216246964Y-82715064D01*
X216246964Y-82715064D02*
X216187441Y-82810302D01*
X216187441Y-82810302D02*
X216133869Y-82857922D01*
X216133869Y-82857922D02*
X216032679Y-82905541D01*
X216032679Y-82905541D02*
X215794583Y-82905541D01*
X215794583Y-82905541D02*
X215705298Y-82857922D01*
X215705298Y-82857922D02*
X215663631Y-82810302D01*
X217163631Y-82238874D02*
X217080298Y-82905541D01*
X216735060Y-82238874D02*
X216669584Y-82762683D01*
X216669584Y-82762683D02*
X216705298Y-82857922D01*
X216705298Y-82857922D02*
X216794584Y-82905541D01*
X216794584Y-82905541D02*
X216937441Y-82905541D01*
X216937441Y-82905541D02*
X217038631Y-82857922D01*
X217038631Y-82857922D02*
X217092203Y-82810302D01*
X23413775Y-82905493D02*
X22937584Y-82905493D01*
X22937584Y-82905493D02*
X23062584Y-81905493D01*
X23759013Y-82810254D02*
X23800680Y-82857874D01*
X23800680Y-82857874D02*
X23747108Y-82905493D01*
X23747108Y-82905493D02*
X23705442Y-82857874D01*
X23705442Y-82857874D02*
X23759013Y-82810254D01*
X23759013Y-82810254D02*
X23747108Y-82905493D01*
X24806632Y-82810254D02*
X24753060Y-82857874D01*
X24753060Y-82857874D02*
X24604251Y-82905493D01*
X24604251Y-82905493D02*
X24509013Y-82905493D01*
X24509013Y-82905493D02*
X24372108Y-82857874D01*
X24372108Y-82857874D02*
X24288775Y-82762635D01*
X24288775Y-82762635D02*
X24253060Y-82667397D01*
X24253060Y-82667397D02*
X24229251Y-82476921D01*
X24229251Y-82476921D02*
X24247108Y-82334064D01*
X24247108Y-82334064D02*
X24318536Y-82143588D01*
X24318536Y-82143588D02*
X24378060Y-82048350D01*
X24378060Y-82048350D02*
X24485203Y-81953112D01*
X24485203Y-81953112D02*
X24634013Y-81905493D01*
X24634013Y-81905493D02*
X24729251Y-81905493D01*
X24729251Y-81905493D02*
X24866156Y-81953112D01*
X24866156Y-81953112D02*
X24907822Y-82000731D01*
X25163775Y-82238826D02*
X25544727Y-82238826D01*
X25348298Y-81905493D02*
X25241156Y-82762635D01*
X25241156Y-82762635D02*
X25276870Y-82857874D01*
X25276870Y-82857874D02*
X25366156Y-82905493D01*
X25366156Y-82905493D02*
X25461394Y-82905493D01*
X25794727Y-82905493D02*
X25878061Y-82238826D01*
X25854251Y-82429302D02*
X25913775Y-82334064D01*
X25913775Y-82334064D02*
X25967346Y-82286445D01*
X25967346Y-82286445D02*
X26068537Y-82238826D01*
X26068537Y-82238826D02*
X26163775Y-82238826D01*
X26556633Y-82905493D02*
X26467347Y-82857874D01*
X26467347Y-82857874D02*
X26431633Y-82762635D01*
X26431633Y-82762635D02*
X26538775Y-81905493D01*
X250674018Y-63331747D02*
X250340685Y-63331747D01*
X250275208Y-63855557D02*
X250400208Y-62855557D01*
X250400208Y-62855557D02*
X250876399Y-62855557D01*
X251215685Y-63188890D02*
X251132351Y-63855557D01*
X251203780Y-63284128D02*
X251257351Y-63236509D01*
X251257351Y-63236509D02*
X251358542Y-63188890D01*
X251358542Y-63188890D02*
X251501399Y-63188890D01*
X251501399Y-63188890D02*
X251590685Y-63236509D01*
X251590685Y-63236509D02*
X251626399Y-63331747D01*
X251626399Y-63331747D02*
X251560923Y-63855557D01*
X56679835Y-82905541D02*
X56108406Y-82905541D01*
X56394121Y-82905541D02*
X56519121Y-81905541D01*
X56519121Y-81905541D02*
X56406025Y-82048398D01*
X56406025Y-82048398D02*
X56298883Y-82143636D01*
X56298883Y-82143636D02*
X56197692Y-82191255D01*
X57120311Y-82810302D02*
X57161978Y-82857922D01*
X57161978Y-82857922D02*
X57108406Y-82905541D01*
X57108406Y-82905541D02*
X57066740Y-82857922D01*
X57066740Y-82857922D02*
X57120311Y-82810302D01*
X57120311Y-82810302D02*
X57108406Y-82905541D01*
X57650073Y-82000779D02*
X57703644Y-81953160D01*
X57703644Y-81953160D02*
X57804834Y-81905541D01*
X57804834Y-81905541D02*
X58042930Y-81905541D01*
X58042930Y-81905541D02*
X58132215Y-81953160D01*
X58132215Y-81953160D02*
X58173882Y-82000779D01*
X58173882Y-82000779D02*
X58209596Y-82096017D01*
X58209596Y-82096017D02*
X58197692Y-82191255D01*
X58197692Y-82191255D02*
X58132215Y-82334112D01*
X58132215Y-82334112D02*
X57489358Y-82905541D01*
X57489358Y-82905541D02*
X58108406Y-82905541D01*
X59138168Y-81905541D02*
X58661977Y-81905541D01*
X58661977Y-81905541D02*
X58554835Y-82381731D01*
X58554835Y-82381731D02*
X58608406Y-82334112D01*
X58608406Y-82334112D02*
X58709596Y-82286493D01*
X58709596Y-82286493D02*
X58947692Y-82286493D01*
X58947692Y-82286493D02*
X59036977Y-82334112D01*
X59036977Y-82334112D02*
X59078644Y-82381731D01*
X59078644Y-82381731D02*
X59114358Y-82476969D01*
X59114358Y-82476969D02*
X59084596Y-82715064D01*
X59084596Y-82715064D02*
X59025073Y-82810302D01*
X59025073Y-82810302D02*
X58971501Y-82857922D01*
X58971501Y-82857922D02*
X58870311Y-82905541D01*
X58870311Y-82905541D02*
X58632215Y-82905541D01*
X58632215Y-82905541D02*
X58542930Y-82857922D01*
X58542930Y-82857922D02*
X58501263Y-82810302D01*
X60001263Y-82238874D02*
X59917930Y-82905541D01*
X59572692Y-82238874D02*
X59507216Y-82762683D01*
X59507216Y-82762683D02*
X59542930Y-82857922D01*
X59542930Y-82857922D02*
X59632216Y-82905541D01*
X59632216Y-82905541D02*
X59775073Y-82905541D01*
X59775073Y-82905541D02*
X59876263Y-82857922D01*
X59876263Y-82857922D02*
X59929835Y-82810302D01*
X164568138Y-82000779D02*
X164621709Y-81953160D01*
X164621709Y-81953160D02*
X164722899Y-81905541D01*
X164722899Y-81905541D02*
X164960995Y-81905541D01*
X164960995Y-81905541D02*
X165050280Y-81953160D01*
X165050280Y-81953160D02*
X165091947Y-82000779D01*
X165091947Y-82000779D02*
X165127661Y-82096017D01*
X165127661Y-82096017D02*
X165115757Y-82191255D01*
X165115757Y-82191255D02*
X165050280Y-82334112D01*
X165050280Y-82334112D02*
X164407423Y-82905541D01*
X164407423Y-82905541D02*
X165026471Y-82905541D01*
X165966947Y-82238874D02*
X165883614Y-82905541D01*
X165538376Y-82238874D02*
X165472900Y-82762683D01*
X165472900Y-82762683D02*
X165508614Y-82857922D01*
X165508614Y-82857922D02*
X165597900Y-82905541D01*
X165597900Y-82905541D02*
X165740757Y-82905541D01*
X165740757Y-82905541D02*
X165841947Y-82857922D01*
X165841947Y-82857922D02*
X165895519Y-82810302D01*
X109501926Y-82000779D02*
X109555497Y-81953160D01*
X109555497Y-81953160D02*
X109656687Y-81905541D01*
X109656687Y-81905541D02*
X109894783Y-81905541D01*
X109894783Y-81905541D02*
X109984068Y-81953160D01*
X109984068Y-81953160D02*
X110025735Y-82000779D01*
X110025735Y-82000779D02*
X110061449Y-82096017D01*
X110061449Y-82096017D02*
X110049545Y-82191255D01*
X110049545Y-82191255D02*
X109984068Y-82334112D01*
X109984068Y-82334112D02*
X109341211Y-82905541D01*
X109341211Y-82905541D02*
X109960259Y-82905541D01*
X110400735Y-82810302D02*
X110442402Y-82857922D01*
X110442402Y-82857922D02*
X110388830Y-82905541D01*
X110388830Y-82905541D02*
X110347164Y-82857922D01*
X110347164Y-82857922D02*
X110400735Y-82810302D01*
X110400735Y-82810302D02*
X110388830Y-82905541D01*
X110930497Y-82000779D02*
X110984068Y-81953160D01*
X110984068Y-81953160D02*
X111085258Y-81905541D01*
X111085258Y-81905541D02*
X111323354Y-81905541D01*
X111323354Y-81905541D02*
X111412639Y-81953160D01*
X111412639Y-81953160D02*
X111454306Y-82000779D01*
X111454306Y-82000779D02*
X111490020Y-82096017D01*
X111490020Y-82096017D02*
X111478116Y-82191255D01*
X111478116Y-82191255D02*
X111412639Y-82334112D01*
X111412639Y-82334112D02*
X110769782Y-82905541D01*
X110769782Y-82905541D02*
X111388830Y-82905541D01*
X112418592Y-81905541D02*
X111942401Y-81905541D01*
X111942401Y-81905541D02*
X111835259Y-82381731D01*
X111835259Y-82381731D02*
X111888830Y-82334112D01*
X111888830Y-82334112D02*
X111990020Y-82286493D01*
X111990020Y-82286493D02*
X112228116Y-82286493D01*
X112228116Y-82286493D02*
X112317401Y-82334112D01*
X112317401Y-82334112D02*
X112359068Y-82381731D01*
X112359068Y-82381731D02*
X112394782Y-82476969D01*
X112394782Y-82476969D02*
X112365020Y-82715064D01*
X112365020Y-82715064D02*
X112305497Y-82810302D01*
X112305497Y-82810302D02*
X112251925Y-82857922D01*
X112251925Y-82857922D02*
X112150735Y-82905541D01*
X112150735Y-82905541D02*
X111912639Y-82905541D01*
X111912639Y-82905541D02*
X111823354Y-82857922D01*
X111823354Y-82857922D02*
X111781687Y-82810302D01*
X113281687Y-82238874D02*
X113198354Y-82905541D01*
X112853116Y-82238874D02*
X112787640Y-82762683D01*
X112787640Y-82762683D02*
X112823354Y-82857922D01*
X112823354Y-82857922D02*
X112912640Y-82905541D01*
X112912640Y-82905541D02*
X113055497Y-82905541D01*
X113055497Y-82905541D02*
X113156687Y-82857922D01*
X113156687Y-82857922D02*
X113210259Y-82810302D01*
X242840093Y-25231779D02*
X242976998Y-25279398D01*
X242976998Y-25279398D02*
X243018664Y-25327017D01*
X243018664Y-25327017D02*
X243054379Y-25422255D01*
X243054379Y-25422255D02*
X243036521Y-25565112D01*
X243036521Y-25565112D02*
X242976998Y-25660350D01*
X242976998Y-25660350D02*
X242923426Y-25707970D01*
X242923426Y-25707970D02*
X242822236Y-25755589D01*
X242822236Y-25755589D02*
X242441283Y-25755589D01*
X242441283Y-25755589D02*
X242566283Y-24755589D01*
X242566283Y-24755589D02*
X242899617Y-24755589D01*
X242899617Y-24755589D02*
X242988902Y-24803208D01*
X242988902Y-24803208D02*
X243030569Y-24850827D01*
X243030569Y-24850827D02*
X243066283Y-24946065D01*
X243066283Y-24946065D02*
X243054379Y-25041303D01*
X243054379Y-25041303D02*
X242994855Y-25136541D01*
X242994855Y-25136541D02*
X242941283Y-25184160D01*
X242941283Y-25184160D02*
X242840093Y-25231779D01*
X242840093Y-25231779D02*
X242506760Y-25231779D01*
X243869855Y-25755589D02*
X243935331Y-25231779D01*
X243935331Y-25231779D02*
X243899617Y-25136541D01*
X243899617Y-25136541D02*
X243810331Y-25088922D01*
X243810331Y-25088922D02*
X243619855Y-25088922D01*
X243619855Y-25088922D02*
X243518664Y-25136541D01*
X243875807Y-25707970D02*
X243774617Y-25755589D01*
X243774617Y-25755589D02*
X243536521Y-25755589D01*
X243536521Y-25755589D02*
X243447236Y-25707970D01*
X243447236Y-25707970D02*
X243411521Y-25612731D01*
X243411521Y-25612731D02*
X243423426Y-25517493D01*
X243423426Y-25517493D02*
X243482950Y-25422255D01*
X243482950Y-25422255D02*
X243584141Y-25374636D01*
X243584141Y-25374636D02*
X243822236Y-25374636D01*
X243822236Y-25374636D02*
X243923426Y-25327017D01*
X244780569Y-25707970D02*
X244679379Y-25755589D01*
X244679379Y-25755589D02*
X244488903Y-25755589D01*
X244488903Y-25755589D02*
X244399617Y-25707970D01*
X244399617Y-25707970D02*
X244357950Y-25660350D01*
X244357950Y-25660350D02*
X244322236Y-25565112D01*
X244322236Y-25565112D02*
X244357950Y-25279398D01*
X244357950Y-25279398D02*
X244417474Y-25184160D01*
X244417474Y-25184160D02*
X244471045Y-25136541D01*
X244471045Y-25136541D02*
X244572236Y-25088922D01*
X244572236Y-25088922D02*
X244762712Y-25088922D01*
X244762712Y-25088922D02*
X244851998Y-25136541D01*
X245203188Y-25755589D02*
X245328188Y-24755589D01*
X245346046Y-25374636D02*
X245584141Y-25755589D01*
X245667474Y-25088922D02*
X245238903Y-25469874D01*
X245971046Y-25707970D02*
X246060331Y-25755589D01*
X246060331Y-25755589D02*
X246250808Y-25755589D01*
X246250808Y-25755589D02*
X246351998Y-25707970D01*
X246351998Y-25707970D02*
X246411522Y-25612731D01*
X246411522Y-25612731D02*
X246417474Y-25565112D01*
X246417474Y-25565112D02*
X246381760Y-25469874D01*
X246381760Y-25469874D02*
X246292474Y-25422255D01*
X246292474Y-25422255D02*
X246149617Y-25422255D01*
X246149617Y-25422255D02*
X246060331Y-25374636D01*
X246060331Y-25374636D02*
X246024617Y-25279398D01*
X246024617Y-25279398D02*
X246030570Y-25231779D01*
X246030570Y-25231779D02*
X246090093Y-25136541D01*
X246090093Y-25136541D02*
X246191284Y-25088922D01*
X246191284Y-25088922D02*
X246334141Y-25088922D01*
X246334141Y-25088922D02*
X246423427Y-25136541D01*
X246905570Y-25088922D02*
X246780570Y-26088922D01*
X246899617Y-25136541D02*
X247000808Y-25088922D01*
X247000808Y-25088922D02*
X247191284Y-25088922D01*
X247191284Y-25088922D02*
X247280570Y-25136541D01*
X247280570Y-25136541D02*
X247322236Y-25184160D01*
X247322236Y-25184160D02*
X247357951Y-25279398D01*
X247357951Y-25279398D02*
X247322236Y-25565112D01*
X247322236Y-25565112D02*
X247262713Y-25660350D01*
X247262713Y-25660350D02*
X247209141Y-25707970D01*
X247209141Y-25707970D02*
X247107951Y-25755589D01*
X247107951Y-25755589D02*
X246917474Y-25755589D01*
X246917474Y-25755589D02*
X246828189Y-25707970D01*
X248155570Y-25755589D02*
X248221046Y-25231779D01*
X248221046Y-25231779D02*
X248185332Y-25136541D01*
X248185332Y-25136541D02*
X248096046Y-25088922D01*
X248096046Y-25088922D02*
X247905570Y-25088922D01*
X247905570Y-25088922D02*
X247804379Y-25136541D01*
X248161522Y-25707970D02*
X248060332Y-25755589D01*
X248060332Y-25755589D02*
X247822236Y-25755589D01*
X247822236Y-25755589D02*
X247732951Y-25707970D01*
X247732951Y-25707970D02*
X247697236Y-25612731D01*
X247697236Y-25612731D02*
X247709141Y-25517493D01*
X247709141Y-25517493D02*
X247768665Y-25422255D01*
X247768665Y-25422255D02*
X247869856Y-25374636D01*
X247869856Y-25374636D02*
X248107951Y-25374636D01*
X248107951Y-25374636D02*
X248209141Y-25327017D01*
X249066284Y-25707970D02*
X248965094Y-25755589D01*
X248965094Y-25755589D02*
X248774618Y-25755589D01*
X248774618Y-25755589D02*
X248685332Y-25707970D01*
X248685332Y-25707970D02*
X248643665Y-25660350D01*
X248643665Y-25660350D02*
X248607951Y-25565112D01*
X248607951Y-25565112D02*
X248643665Y-25279398D01*
X248643665Y-25279398D02*
X248703189Y-25184160D01*
X248703189Y-25184160D02*
X248756760Y-25136541D01*
X248756760Y-25136541D02*
X248857951Y-25088922D01*
X248857951Y-25088922D02*
X249048427Y-25088922D01*
X249048427Y-25088922D02*
X249137713Y-25136541D01*
X249875808Y-25707970D02*
X249774618Y-25755589D01*
X249774618Y-25755589D02*
X249584141Y-25755589D01*
X249584141Y-25755589D02*
X249494856Y-25707970D01*
X249494856Y-25707970D02*
X249459141Y-25612731D01*
X249459141Y-25612731D02*
X249506761Y-25231779D01*
X249506761Y-25231779D02*
X249566284Y-25136541D01*
X249566284Y-25136541D02*
X249667475Y-25088922D01*
X249667475Y-25088922D02*
X249857951Y-25088922D01*
X249857951Y-25088922D02*
X249947237Y-25136541D01*
X249947237Y-25136541D02*
X249982951Y-25231779D01*
X249982951Y-25231779D02*
X249971046Y-25327017D01*
X249971046Y-25327017D02*
X249482951Y-25422255D01*
X45964071Y-63855557D02*
X45392642Y-63855557D01*
X45678357Y-63855557D02*
X45803357Y-62855557D01*
X45803357Y-62855557D02*
X45690261Y-62998414D01*
X45690261Y-62998414D02*
X45583119Y-63093652D01*
X45583119Y-63093652D02*
X45481928Y-63141271D01*
X46904547Y-63188890D02*
X46821214Y-63855557D01*
X46475976Y-63188890D02*
X46410500Y-63712699D01*
X46410500Y-63712699D02*
X46446214Y-63807938D01*
X46446214Y-63807938D02*
X46535500Y-63855557D01*
X46535500Y-63855557D02*
X46678357Y-63855557D01*
X46678357Y-63855557D02*
X46779547Y-63807938D01*
X46779547Y-63807938D02*
X46833119Y-63760318D01*
X26015275Y-24755605D02*
X26586704Y-24755605D01*
X26175990Y-25755605D02*
X26300990Y-24755605D01*
X27223609Y-25755605D02*
X27289085Y-25231795D01*
X27289085Y-25231795D02*
X27253371Y-25136557D01*
X27253371Y-25136557D02*
X27164085Y-25088938D01*
X27164085Y-25088938D02*
X26973609Y-25088938D01*
X26973609Y-25088938D02*
X26872418Y-25136557D01*
X27229561Y-25707986D02*
X27128371Y-25755605D01*
X27128371Y-25755605D02*
X26890275Y-25755605D01*
X26890275Y-25755605D02*
X26800990Y-25707986D01*
X26800990Y-25707986D02*
X26765275Y-25612747D01*
X26765275Y-25612747D02*
X26777180Y-25517509D01*
X26777180Y-25517509D02*
X26836704Y-25422271D01*
X26836704Y-25422271D02*
X26937895Y-25374652D01*
X26937895Y-25374652D02*
X27175990Y-25374652D01*
X27175990Y-25374652D02*
X27277180Y-25327033D01*
X27699799Y-25755605D02*
X27824799Y-24755605D01*
X27777180Y-25136557D02*
X27878371Y-25088938D01*
X27878371Y-25088938D02*
X28068847Y-25088938D01*
X28068847Y-25088938D02*
X28158133Y-25136557D01*
X28158133Y-25136557D02*
X28199799Y-25184176D01*
X28199799Y-25184176D02*
X28235514Y-25279414D01*
X28235514Y-25279414D02*
X28199799Y-25565128D01*
X28199799Y-25565128D02*
X28140276Y-25660366D01*
X28140276Y-25660366D02*
X28086704Y-25707986D01*
X28086704Y-25707986D02*
X27985514Y-25755605D01*
X27985514Y-25755605D02*
X27795037Y-25755605D01*
X27795037Y-25755605D02*
X27705752Y-25707986D01*
X24021229Y-44710334D02*
X23967657Y-44757954D01*
X23967657Y-44757954D02*
X23818848Y-44805573D01*
X23818848Y-44805573D02*
X23723610Y-44805573D01*
X23723610Y-44805573D02*
X23586705Y-44757954D01*
X23586705Y-44757954D02*
X23503372Y-44662715D01*
X23503372Y-44662715D02*
X23467657Y-44567477D01*
X23467657Y-44567477D02*
X23443848Y-44377001D01*
X23443848Y-44377001D02*
X23461705Y-44234144D01*
X23461705Y-44234144D02*
X23533133Y-44043668D01*
X23533133Y-44043668D02*
X23592657Y-43948430D01*
X23592657Y-43948430D02*
X23699800Y-43853192D01*
X23699800Y-43853192D02*
X23848610Y-43805573D01*
X23848610Y-43805573D02*
X23943848Y-43805573D01*
X23943848Y-43805573D02*
X24080753Y-43853192D01*
X24080753Y-43853192D02*
X24122419Y-43900811D01*
X24866467Y-44805573D02*
X24931943Y-44281763D01*
X24931943Y-44281763D02*
X24896229Y-44186525D01*
X24896229Y-44186525D02*
X24806943Y-44138906D01*
X24806943Y-44138906D02*
X24616467Y-44138906D01*
X24616467Y-44138906D02*
X24515276Y-44186525D01*
X24872419Y-44757954D02*
X24771229Y-44805573D01*
X24771229Y-44805573D02*
X24533133Y-44805573D01*
X24533133Y-44805573D02*
X24443848Y-44757954D01*
X24443848Y-44757954D02*
X24408133Y-44662715D01*
X24408133Y-44662715D02*
X24420038Y-44567477D01*
X24420038Y-44567477D02*
X24479562Y-44472239D01*
X24479562Y-44472239D02*
X24580753Y-44424620D01*
X24580753Y-44424620D02*
X24818848Y-44424620D01*
X24818848Y-44424620D02*
X24920038Y-44377001D01*
X25425991Y-44138906D02*
X25300991Y-45138906D01*
X25420038Y-44186525D02*
X25521229Y-44138906D01*
X25521229Y-44138906D02*
X25711705Y-44138906D01*
X25711705Y-44138906D02*
X25800991Y-44186525D01*
X25800991Y-44186525D02*
X25842657Y-44234144D01*
X25842657Y-44234144D02*
X25878372Y-44329382D01*
X25878372Y-44329382D02*
X25842657Y-44615096D01*
X25842657Y-44615096D02*
X25783134Y-44710334D01*
X25783134Y-44710334D02*
X25729562Y-44757954D01*
X25729562Y-44757954D02*
X25628372Y-44805573D01*
X25628372Y-44805573D02*
X25437895Y-44805573D01*
X25437895Y-44805573D02*
X25348610Y-44757954D01*
X26205753Y-44757954D02*
X26295038Y-44805573D01*
X26295038Y-44805573D02*
X26485515Y-44805573D01*
X26485515Y-44805573D02*
X26586705Y-44757954D01*
X26586705Y-44757954D02*
X26646229Y-44662715D01*
X26646229Y-44662715D02*
X26652181Y-44615096D01*
X26652181Y-44615096D02*
X26616467Y-44519858D01*
X26616467Y-44519858D02*
X26527181Y-44472239D01*
X26527181Y-44472239D02*
X26384324Y-44472239D01*
X26384324Y-44472239D02*
X26295038Y-44424620D01*
X26295038Y-44424620D02*
X26259324Y-44329382D01*
X26259324Y-44329382D02*
X26265277Y-44281763D01*
X26265277Y-44281763D02*
X26324800Y-44186525D01*
X26324800Y-44186525D02*
X26425991Y-44138906D01*
X26425991Y-44138906D02*
X26568848Y-44138906D01*
X26568848Y-44138906D02*
X26658134Y-44186525D01*
X28295039Y-44805573D02*
X27818848Y-44805573D01*
X27818848Y-44805573D02*
X27943848Y-43805573D01*
X28771230Y-44805573D02*
X28681944Y-44757954D01*
X28681944Y-44757954D02*
X28640277Y-44710334D01*
X28640277Y-44710334D02*
X28604563Y-44615096D01*
X28604563Y-44615096D02*
X28640277Y-44329382D01*
X28640277Y-44329382D02*
X28699801Y-44234144D01*
X28699801Y-44234144D02*
X28753372Y-44186525D01*
X28753372Y-44186525D02*
X28854563Y-44138906D01*
X28854563Y-44138906D02*
X28997420Y-44138906D01*
X28997420Y-44138906D02*
X29086706Y-44186525D01*
X29086706Y-44186525D02*
X29128372Y-44234144D01*
X29128372Y-44234144D02*
X29164087Y-44329382D01*
X29164087Y-44329382D02*
X29128372Y-44615096D01*
X29128372Y-44615096D02*
X29068849Y-44710334D01*
X29068849Y-44710334D02*
X29015277Y-44757954D01*
X29015277Y-44757954D02*
X28914087Y-44805573D01*
X28914087Y-44805573D02*
X28771230Y-44805573D01*
X29967658Y-44757954D02*
X29866468Y-44805573D01*
X29866468Y-44805573D02*
X29675992Y-44805573D01*
X29675992Y-44805573D02*
X29586706Y-44757954D01*
X29586706Y-44757954D02*
X29545039Y-44710334D01*
X29545039Y-44710334D02*
X29509325Y-44615096D01*
X29509325Y-44615096D02*
X29545039Y-44329382D01*
X29545039Y-44329382D02*
X29604563Y-44234144D01*
X29604563Y-44234144D02*
X29658134Y-44186525D01*
X29658134Y-44186525D02*
X29759325Y-44138906D01*
X29759325Y-44138906D02*
X29949801Y-44138906D01*
X29949801Y-44138906D02*
X30039087Y-44186525D01*
X30390277Y-44805573D02*
X30515277Y-43805573D01*
X30533135Y-44424620D02*
X30771230Y-44805573D01*
X30854563Y-44138906D02*
X30425992Y-44519858D01*
X247250923Y-82905493D02*
X246977113Y-82429302D01*
X246679494Y-82905493D02*
X246804494Y-81905493D01*
X246804494Y-81905493D02*
X247185447Y-81905493D01*
X247185447Y-81905493D02*
X247274732Y-81953112D01*
X247274732Y-81953112D02*
X247316399Y-82000731D01*
X247316399Y-82000731D02*
X247352113Y-82095969D01*
X247352113Y-82095969D02*
X247334256Y-82238826D01*
X247334256Y-82238826D02*
X247274732Y-82334064D01*
X247274732Y-82334064D02*
X247221161Y-82381683D01*
X247221161Y-82381683D02*
X247119971Y-82429302D01*
X247119971Y-82429302D02*
X246739018Y-82429302D01*
X247691399Y-82810254D02*
X247733066Y-82857874D01*
X247733066Y-82857874D02*
X247679494Y-82905493D01*
X247679494Y-82905493D02*
X247637828Y-82857874D01*
X247637828Y-82857874D02*
X247691399Y-82810254D01*
X247691399Y-82810254D02*
X247679494Y-82905493D01*
X248739018Y-82810254D02*
X248685446Y-82857874D01*
X248685446Y-82857874D02*
X248536637Y-82905493D01*
X248536637Y-82905493D02*
X248441399Y-82905493D01*
X248441399Y-82905493D02*
X248304494Y-82857874D01*
X248304494Y-82857874D02*
X248221161Y-82762635D01*
X248221161Y-82762635D02*
X248185446Y-82667397D01*
X248185446Y-82667397D02*
X248161637Y-82476921D01*
X248161637Y-82476921D02*
X248179494Y-82334064D01*
X248179494Y-82334064D02*
X248250922Y-82143588D01*
X248250922Y-82143588D02*
X248310446Y-82048350D01*
X248310446Y-82048350D02*
X248417589Y-81953112D01*
X248417589Y-81953112D02*
X248566399Y-81905493D01*
X248566399Y-81905493D02*
X248661637Y-81905493D01*
X248661637Y-81905493D02*
X248798542Y-81953112D01*
X248798542Y-81953112D02*
X248840208Y-82000731D01*
X249096161Y-82238826D02*
X249477113Y-82238826D01*
X249280684Y-81905493D02*
X249173542Y-82762635D01*
X249173542Y-82762635D02*
X249209256Y-82857874D01*
X249209256Y-82857874D02*
X249298542Y-82905493D01*
X249298542Y-82905493D02*
X249393780Y-82905493D01*
X249727113Y-82905493D02*
X249810447Y-82238826D01*
X249786637Y-82429302D02*
X249846161Y-82334064D01*
X249846161Y-82334064D02*
X249899732Y-82286445D01*
X249899732Y-82286445D02*
X250000923Y-82238826D01*
X250000923Y-82238826D02*
X250096161Y-82238826D01*
X250489019Y-82905493D02*
X250399733Y-82857874D01*
X250399733Y-82857874D02*
X250364019Y-82762635D01*
X250364019Y-82762635D02*
X250471161Y-81905493D01*
%LPC*%
D11*
%TO.C,MX25*%
X29150450Y-60424178D03*
D12*
X34230450Y-60424178D03*
D11*
X39310450Y-60424178D03*
%TD*%
%TO.C,MX15*%
X50581682Y-41374194D03*
D12*
X55661682Y-41374194D03*
D11*
X60741682Y-41374194D03*
%TD*%
%TO.C,MX26*%
X19625458Y-60424178D03*
D12*
X24705458Y-60424178D03*
D11*
X29785458Y-60424178D03*
%TD*%
%TO.C,MX43*%
X102969138Y-79474162D03*
D12*
X108049138Y-79474162D03*
D11*
X113129138Y-79474162D03*
%TD*%
%TO.C,MX7*%
X141069206Y-22324210D03*
D12*
X146149206Y-22324210D03*
D11*
X151229206Y-22324210D03*
%TD*%
%TO.C,MX22*%
X183931634Y-41374194D03*
D12*
X189011634Y-41374194D03*
D11*
X194091634Y-41374194D03*
%TD*%
D12*
%TO.C,S8*%
X169961597Y-71219162D03*
X146149095Y-71219162D03*
%TD*%
D11*
%TO.C,MX30*%
X98206642Y-60424178D03*
D12*
X103286642Y-60424178D03*
D11*
X108366642Y-60424178D03*
%TD*%
D12*
%TO.C,S2*%
X46136701Y-52169178D03*
X22324199Y-52169178D03*
%TD*%
D11*
%TO.C,MX53*%
X152975346Y-79474162D03*
D12*
X158055346Y-79474162D03*
D11*
X163135346Y-79474162D03*
%TD*%
D12*
%TO.C,S4*%
X119955389Y-71219162D03*
X96142887Y-71219162D03*
%TD*%
D11*
%TO.C,MX1*%
X22006706Y-22324210D03*
D12*
X27086706Y-22324210D03*
D11*
X32166706Y-22324210D03*
%TD*%
%TO.C,MX41*%
X72012914Y-79474162D03*
D12*
X77092914Y-79474162D03*
D11*
X82172914Y-79474162D03*
%TD*%
%TO.C,MX31*%
X117256626Y-60424178D03*
D12*
X122336626Y-60424178D03*
D11*
X127416626Y-60424178D03*
%TD*%
%TO.C,MX47*%
X191075314Y-79474162D03*
D12*
X196155314Y-79474162D03*
D11*
X201235314Y-79474162D03*
%TD*%
%TO.C,MX4*%
X83919206Y-22324210D03*
D12*
X88999206Y-22324210D03*
D11*
X94079206Y-22324210D03*
%TD*%
%TO.C,MX29*%
X79156658Y-60424178D03*
D12*
X84236658Y-60424178D03*
D11*
X89316658Y-60424178D03*
%TD*%
%TO.C,MX34*%
X174406578Y-60424178D03*
D12*
X179486578Y-60424178D03*
D11*
X184566578Y-60424178D03*
%TD*%
%TO.C,MX9*%
X179169206Y-22324210D03*
D12*
X184249206Y-22324210D03*
D11*
X189329206Y-22324210D03*
%TD*%
%TO.C,MX45*%
X131544114Y-79474162D03*
D12*
X136624114Y-79474162D03*
D11*
X141704114Y-79474162D03*
%TD*%
%TO.C,MX14*%
X19625458Y-41374194D03*
D12*
X24705458Y-41374194D03*
D11*
X29785458Y-41374194D03*
%TD*%
%TO.C,MX11*%
X217269206Y-22324210D03*
D12*
X222349206Y-22324210D03*
D11*
X227429206Y-22324210D03*
%TD*%
%TO.C,MX10*%
X198219206Y-22324210D03*
D12*
X203299206Y-22324210D03*
D11*
X208379206Y-22324210D03*
%TD*%
%TO.C,MX8*%
X160119206Y-22324210D03*
D12*
X165199206Y-22324210D03*
D11*
X170279206Y-22324210D03*
%TD*%
%TO.C,MX20*%
X145831634Y-41374194D03*
D12*
X150911634Y-41374194D03*
D11*
X155991634Y-41374194D03*
%TD*%
%TO.C,MX39*%
X52962930Y-79474162D03*
D12*
X58042930Y-79474162D03*
D11*
X63122930Y-79474162D03*
%TD*%
%TO.C,MX37*%
X245844018Y-60424178D03*
D12*
X250924018Y-60424178D03*
D11*
X256004018Y-60424178D03*
%TD*%
D12*
%TO.C,S7*%
X122336637Y-71219162D03*
X98524135Y-71219162D03*
%TD*%
D11*
%TO.C,MX16*%
X69631666Y-41374194D03*
D12*
X74711666Y-41374194D03*
D11*
X79791666Y-41374194D03*
%TD*%
%TO.C,MX32*%
X136306610Y-60424210D03*
D12*
X141386610Y-60424210D03*
D11*
X146466610Y-60424210D03*
%TD*%
%TO.C,MX48*%
X188694066Y-79474162D03*
D12*
X193774066Y-79474162D03*
D11*
X198854066Y-79474162D03*
%TD*%
D12*
%TO.C,S6*%
X174724124Y-71219162D03*
X74711624Y-71219162D03*
%TD*%
D11*
%TO.C,MX51*%
X243462770Y-79474162D03*
D12*
X248542770Y-79474162D03*
D11*
X253622770Y-79474162D03*
%TD*%
%TO.C,MX23*%
X202981634Y-41374194D03*
D12*
X208061634Y-41374194D03*
D11*
X213141634Y-41374194D03*
%TD*%
%TO.C,MX52*%
X105350386Y-79474162D03*
D12*
X110430386Y-79474162D03*
D11*
X115510386Y-79474162D03*
%TD*%
%TO.C,MX42*%
X74394162Y-79474162D03*
D12*
X79474162Y-79474162D03*
D11*
X84554162Y-79474162D03*
%TD*%
%TO.C,MX49*%
X210125298Y-79474162D03*
D12*
X215205298Y-79474162D03*
D11*
X220285298Y-79474162D03*
%TD*%
%TO.C,MX18*%
X107731634Y-41374194D03*
D12*
X112811634Y-41374194D03*
D11*
X117891634Y-41374194D03*
%TD*%
%TO.C,MX27*%
X41056690Y-60424178D03*
D12*
X46136690Y-60424178D03*
D11*
X51216690Y-60424178D03*
%TD*%
D12*
%TO.C,S1*%
X193774114Y-71219162D03*
X79474114Y-71219162D03*
%TD*%
D11*
%TO.C,MX17*%
X88681650Y-41374194D03*
D12*
X93761650Y-41374194D03*
D11*
X98841650Y-41374194D03*
%TD*%
%TO.C,MX19*%
X126781634Y-41374194D03*
D12*
X131861634Y-41374194D03*
D11*
X136941634Y-41374194D03*
%TD*%
%TO.C,MX3*%
X64869206Y-22324210D03*
D12*
X69949206Y-22324210D03*
D11*
X75029206Y-22324210D03*
%TD*%
%TO.C,MX44*%
X119637874Y-79474162D03*
D12*
X124717874Y-79474162D03*
D11*
X129797874Y-79474162D03*
%TD*%
%TO.C,MX28*%
X60106674Y-60424178D03*
D12*
X65186674Y-60424178D03*
D11*
X70266674Y-60424178D03*
%TD*%
%TO.C,MX6*%
X122019206Y-22324210D03*
D12*
X127099206Y-22324210D03*
D11*
X132179206Y-22324210D03*
%TD*%
%TO.C,MX13*%
X24387954Y-41374194D03*
D12*
X29467954Y-41374194D03*
D11*
X34547954Y-41374194D03*
%TD*%
%TO.C,MX40*%
X50581682Y-79474162D03*
D12*
X55661682Y-79474162D03*
D11*
X60741682Y-79474162D03*
%TD*%
%TO.C,MX46*%
X160119090Y-79474162D03*
D12*
X165199090Y-79474162D03*
D11*
X170279090Y-79474162D03*
%TD*%
%TO.C,MX21*%
X164881634Y-41374194D03*
D12*
X169961634Y-41374194D03*
D11*
X175041634Y-41374194D03*
%TD*%
%TO.C,MX5*%
X102969206Y-22324210D03*
D12*
X108049206Y-22324210D03*
D11*
X113129206Y-22324210D03*
%TD*%
D12*
%TO.C,S5*%
X177105341Y-71219162D03*
X153292839Y-71219162D03*
%TD*%
D11*
%TO.C,MX33*%
X155356594Y-60424210D03*
D12*
X160436594Y-60424210D03*
D11*
X165516594Y-60424210D03*
%TD*%
%TO.C,MX35*%
X193456562Y-60424178D03*
D12*
X198536562Y-60424178D03*
D11*
X203616562Y-60424178D03*
%TD*%
%TO.C,MX12*%
X241081522Y-22324210D03*
D12*
X246161522Y-22324210D03*
D11*
X251241522Y-22324210D03*
%TD*%
%TO.C,MX2*%
X45819206Y-22324210D03*
D12*
X50899206Y-22324210D03*
D11*
X55979206Y-22324210D03*
%TD*%
%TO.C,MX36*%
X219650290Y-60424178D03*
D12*
X224730290Y-60424178D03*
D11*
X229810290Y-60424178D03*
%TD*%
%TO.C,MX38*%
X19625458Y-79474162D03*
D12*
X24705458Y-79474162D03*
D11*
X29785458Y-79474162D03*
%TD*%
%TO.C,MX50*%
X212506546Y-79474162D03*
D12*
X217586546Y-79474162D03*
D11*
X222666546Y-79474162D03*
%TD*%
%TO.C,MX24*%
X233937814Y-41374194D03*
D12*
X239017814Y-41374194D03*
D11*
X244097814Y-41374194D03*
%TD*%
D12*
%TO.C,S3*%
X250924065Y-33119194D03*
X227111563Y-33119194D03*
%TD*%
%LPD*%
M02*
