M48
; DRILL file {KiCad 8.0.6} date 2024-10-30T10:49:26+0530
; FORMAT={-:-/ absolute / inch / decimal}
; #@! TF.CreationDate,2024-10-30T10:49:26+05:30
; #@! TF.GenerationSoftware,Kicad,Pcbnew,8.0.6
; #@! TF.FileFunction,Plated,1,2,PTH
FMAT,2
INCH
; #@! TA.AperFunction,Plated,PTH,ViaDrill
T1C0.0157
; #@! TA.AperFunction,Plated,PTH,ComponentDrill
T2C0.0600
; #@! TA.AperFunction,Plated,PTH,ComponentDrill
T3C0.1200
%
G90
G05
T1
X1.2602Y-1.9136
X2.1541Y-1.9412
X2.8765Y-1.9688
X3.4107Y-2.6144
X4.1664Y-2.642
X5.0988Y-1.9965
X5.6664Y-2.6695
X6.4164Y-2.6971
X6.9844Y-1.7227
X6.9844Y-1.7812
X7.1026Y-1.5
X7.3175Y-2.0278
X7.9164Y-2.4648
X8.0632Y-2.1892
X8.2456Y-2.1659
X8.2837Y-2.4097
X8.331Y-1.997
X8.331Y-2.2476
X8.3979Y-1.8349
X8.4023Y-1.7539
X8.4254Y-2.1026
X8.4375Y-2.5039
X8.4727Y-2.1341
X8.6144Y-2.1813
X8.625Y-2.5039
X8.7187Y-2.0508
X8.7539Y-1.7539
X9.14Y-1.9451
X9.14Y-2.0888
X9.2109Y-1.9453
X9.9789Y-2.5436
T2
X0.8227Y-1.5289
X0.8227Y-2.2789
X0.8227Y-3.0289
X0.9164Y-0.7789
X1.0102Y-1.5289
X1.0727Y-1.4289
X1.0727Y-2.1789
X1.0727Y-2.9289
X1.1664Y-0.6789
X1.1977Y-2.2789
X1.2602Y-1.4289
X1.4477Y-2.1789
X1.6664Y-2.2789
X1.8539Y-0.7789
X1.9164Y-2.1789
X2.0414Y-1.5289
X2.0414Y-3.0289
X2.1039Y-0.6789
X2.1352Y-3.0289
X2.2914Y-1.4289
X2.2914Y-2.9289
X2.3852Y-2.9289
X2.4164Y-2.2789
X2.6039Y-0.7789
X2.6664Y-2.1789
X2.7914Y-1.5289
X2.8539Y-0.6789
X2.8852Y-3.0289
X2.9789Y-3.0289
X3.0414Y-1.4289
X3.1352Y-2.9289
X3.1664Y-2.2789
X3.2289Y-2.9289
X3.3539Y-0.7789
X3.4164Y-2.1789
X3.5414Y-1.5289
X3.6039Y-0.6789
X3.7914Y-1.4289
X3.9164Y-2.2789
X4.1039Y-3.0289
X4.1039Y-0.7789
X4.1664Y-2.1789
X4.1977Y-3.0289
X4.2914Y-1.5289
X4.3539Y-2.9289
X4.3539Y-0.6789
X4.4477Y-2.9289
X4.5414Y-1.4289
X4.6664Y-2.2789
X4.7602Y-3.0289
X4.8539Y-0.7789
X4.9164Y-2.1789
X5.0102Y-2.9289
X5.0414Y-1.5289
X5.1039Y-0.6789
X5.2289Y-3.0289
X5.2914Y-1.4289
X5.4164Y-2.2789
X5.4789Y-2.9289
X5.6039Y-0.7789
X5.6664Y-2.1789
X5.7914Y-1.5289
X5.8539Y-0.6789
X6.0414Y-1.4289
X6.0727Y-3.0289
X6.1664Y-2.2789
X6.3227Y-2.9289
X6.3539Y-3.0289
X6.3539Y-0.7789
X6.4164Y-2.1789
X6.5414Y-1.5289
X6.6039Y-2.9289
X6.6039Y-0.6789
X6.7914Y-1.4289
X6.9164Y-2.2789
X7.1039Y-0.7789
X7.1664Y-2.1789
X7.2914Y-1.5289
X7.3539Y-0.6789
X7.4789Y-3.0289
X7.5414Y-1.4289
X7.5727Y-3.0289
X7.6664Y-2.2789
X7.7289Y-2.9289
X7.8227Y-2.9289
X7.8539Y-0.7789
X7.9164Y-2.1789
X8.0414Y-1.5289
X8.1039Y-0.6789
X8.2914Y-1.4289
X8.3226Y-3.0289
X8.4164Y-3.0289
X8.5726Y-2.9289
X8.6039Y-0.7789
X8.6664Y-2.9289
X8.6976Y-2.2789
X8.8539Y-0.6789
X8.9476Y-2.1789
X9.2602Y-1.5289
X9.5102Y-1.4289
X9.5414Y-0.7789
X9.6351Y-3.0289
X9.7289Y-2.2789
X9.7914Y-0.6789
X9.8851Y-2.9289
X9.9789Y-2.1789
T3
X0.8789Y-2.6539
X1.8164Y-2.6539
X2.9414Y-3.4039
X3.1289Y-3.4039
X3.7852Y-3.4039
X3.8789Y-3.4039
X4.7227Y-3.4039
X4.8164Y-3.4039
X5.7539Y-3.4039
X6.0352Y-3.4039
X6.6914Y-3.4039
X6.8789Y-3.4039
X6.9727Y-3.4039
X7.6289Y-3.4039
X8.9414Y-1.9039
X9.8789Y-1.9039
M30
