M48
; DRILL file {KiCad 8.0.6} date 2024-10-25T20:42:10+0530
; FORMAT={-:-/ absolute / inch / decimal}
; #@! TF.CreationDate,2024-10-25T20:42:10+05:30
; #@! TF.GenerationSoftware,Kicad,Pcbnew,8.0.6
; #@! TF.FileFunction,NonPlated,1,2,NPTH
FMAT,2
INCH
; #@! TA.AperFunction,NonPlated,NPTH,ComponentDrill
T1C0.0689
; #@! TA.AperFunction,NonPlated,NPTH,ComponentDrill
T2C0.1570
%
G90
G05
T1
X0.7727Y-1.6289
X0.7727Y-2.3789
X0.7727Y-3.1289
X0.8664Y-0.8789
X0.9602Y-1.6289
X1.1477Y-2.3789
X1.1727Y-1.6289
X1.1727Y-2.3789
X1.1727Y-3.1289
X1.2664Y-0.8789
X1.3602Y-1.6289
X1.5477Y-2.3789
X1.6164Y-2.3789
X1.8039Y-0.8789
X1.9914Y-1.6289
X1.9914Y-3.1289
X2.0164Y-2.3789
X2.0852Y-3.1289
X2.2039Y-0.8789
X2.3664Y-2.3789
X2.3914Y-1.6289
X2.3914Y-3.1289
X2.4852Y-3.1289
X2.5539Y-0.8789
X2.7414Y-1.6289
X2.7664Y-2.3789
X2.8352Y-3.1289
X2.9289Y-3.1289
X2.9539Y-0.8789
X3.1164Y-2.3789
X3.1414Y-1.6289
X3.2352Y-3.1289
X3.3039Y-0.8789
X3.3289Y-3.1289
X3.4914Y-1.6289
X3.5164Y-2.3789
X3.7039Y-0.8789
X3.8664Y-2.3789
X3.8914Y-1.6289
X4.0539Y-3.1289
X4.0539Y-0.8789
X4.1477Y-3.1289
X4.2414Y-1.6289
X4.2664Y-2.3789
X4.4539Y-3.1289
X4.4539Y-0.8789
X4.5477Y-3.1289
X4.6164Y-2.3789
X4.6414Y-1.6289
X4.7102Y-3.1289
X4.8039Y-0.8789
X4.9914Y-1.6289
X5.0164Y-2.3789
X5.1102Y-3.1289
X5.1789Y-3.1289
X5.2039Y-0.8789
X5.3664Y-2.3789
X5.3914Y-1.6289
X5.5539Y-0.8789
X5.5789Y-3.1289
X5.7414Y-1.6289
X5.7664Y-2.3789
X5.9539Y-0.8789
X6.0227Y-3.1289
X6.1164Y-2.3789
X6.1414Y-1.6289
X6.3039Y-3.1289
X6.3039Y-0.8789
X6.4227Y-3.1289
X6.4914Y-1.6289
X6.5164Y-2.3789
X6.7039Y-3.1289
X6.7039Y-0.8789
X6.8664Y-2.3789
X6.8914Y-1.6289
X7.0539Y-0.8789
X7.2414Y-1.6289
X7.2664Y-2.3789
X7.4289Y-3.1289
X7.4539Y-0.8789
X7.5227Y-3.1289
X7.6164Y-2.3789
X7.6414Y-1.6289
X7.8039Y-0.8789
X7.8289Y-3.1289
X7.9227Y-3.1289
X7.9914Y-1.6289
X8.0164Y-2.3789
X8.2039Y-0.8789
X8.2726Y-3.1289
X8.3664Y-3.1289
X8.3914Y-1.6289
X8.5539Y-0.8789
X8.6476Y-2.3789
X8.6726Y-3.1289
X8.7664Y-3.1289
X8.9539Y-0.8789
X9.0476Y-2.3789
X9.2102Y-1.6289
X9.4914Y-0.8789
X9.5851Y-3.1289
X9.6102Y-1.6289
X9.6789Y-2.3789
X9.8914Y-0.8789
X9.9851Y-3.1289
X10.0789Y-2.3789
T2
X0.8789Y-2.0539
X0.9727Y-1.6289
X0.9727Y-2.3789
X0.9727Y-3.1289
X1.0664Y-0.8789
X1.1602Y-1.6289
X1.3477Y-2.3789
X1.8164Y-2.3789
X1.8164Y-2.0539
X2.0039Y-0.8789
X2.1914Y-1.6289
X2.1914Y-3.1289
X2.2852Y-3.1289
X2.5664Y-2.3789
X2.7539Y-0.8789
X2.9414Y-2.8039
X2.9414Y-1.6289
X3.0352Y-3.1289
X3.1289Y-2.8039
X3.1289Y-3.1289
X3.3164Y-2.3789
X3.5039Y-0.8789
X3.6914Y-1.6289
X3.7852Y-2.8039
X3.8789Y-2.8039
X4.0664Y-2.3789
X4.2539Y-3.1289
X4.2539Y-0.8789
X4.3477Y-3.1289
X4.4414Y-1.6289
X4.7227Y-2.8039
X4.8164Y-2.3789
X4.8164Y-2.8039
X4.9102Y-3.1289
X5.0039Y-0.8789
X5.1914Y-1.6289
X5.3789Y-3.1289
X5.5664Y-2.3789
X5.7539Y-2.8039
X5.7539Y-0.8789
X5.9414Y-1.6289
X6.0352Y-2.8039
X6.2227Y-3.1289
X6.3164Y-2.3789
X6.5039Y-3.1289
X6.5039Y-0.8789
X6.6914Y-2.8039
X6.6914Y-1.6289
X6.8789Y-2.8039
X6.9727Y-2.8039
X7.0664Y-2.3789
X7.2539Y-0.8789
X7.4414Y-1.6289
X7.6289Y-3.1289
X7.6289Y-2.8039
X7.7227Y-3.1289
X7.8164Y-2.3789
X8.0039Y-0.8789
X8.1914Y-1.6289
X8.4726Y-3.1289
X8.5664Y-3.1289
X8.7539Y-0.8789
X8.8476Y-2.3789
X8.9414Y-1.3039
X9.4102Y-1.6289
X9.6914Y-0.8789
X9.7851Y-3.1289
X9.8789Y-2.3789
X9.8789Y-1.3039
M30
