0
SECTION
2
HEADER
9
$INSUNITS
70
4
9
$ACADVER
1
AC1014
9
$HANDSEED
5
FFFF
0
ENDSEC
0
SECTION
2
TABLES
0
TABLE
2
VPORT
5
8
100
AcDbSymbolTable
0
ENDTAB
0
TABLE
2
LTYPE
5
5
100
AcDbSymbolTable
0
LTYPE
5
14
100
AcDbSymbolTableRecord
100
AcDbLinetypeTableRecord
2
BYBLOCK
70
0
0
LTYPE
5
15
100
AcDbSymbolTableRecord
100
AcDbLinetypeTableRecord
2
BYLAYER
70
0
0
LTYPE
5
16
100
AcDbSymbolTableRecord
100
AcDbLinetypeTableRecord
2
DASHED
70
0
3
Dashed __ __ __ __ __ __ __ __ __ __ __ __ __ _
72
65
73
2
40
0.75
49
0.5
74
0
49
-0.25
74
0
0
ENDTAB
0
TABLE
2
LAYER
5
2
100
AcDbSymbolTable
70
3
0
LAYER
5
50
100
AcDbSymbolTableRecord
100
AcDbLayerTableRecord
2
1
70
0
62
7
6
DASHED
0
LAYER
5
51
100
AcDbSymbolTableRecord
100
AcDbLayerTableRecord
2
0
70
0
62
7
6
CONTINUOUS
0
ENDTAB
0
TABLE
2
STYLE
5
3
100
AcDbSymbolTable
70
1
0
STYLE
5
11
100
AcDbSymbolTableRecord
100
AcDbTextStyleTableRecord
2
STANDARD
70
0
0
ENDTAB
0
TABLE
2
VIEW
5
6
100
AcDbSymbolTable
70
0
0
ENDTAB
0
TABLE
2
UCS
5
7
100
AcDbSymbolTable
70
0
0
ENDTAB
0
TABLE
2
APPID
5
9
100
AcDbSymbolTable
70
2
0
APPID
5
12
100
AcDbSymbolTableRecord
100
AcDbRegAppTableRecord
2
ACAD
70
0
0
ENDTAB
0
TABLE
2
DIMSTYLE
5
A
100
AcDbSymbolTable
70
1
0
ENDTAB
0
TABLE
2
BLOCK_RECORD
5
1
100
AcDbSymbolTable
70
1
0
BLOCK_RECORD
5
1F
100
AcDbSymbolTableRecord
100
AcDbBlockTableRecord
2
*MODEL_SPACE
0
BLOCK_RECORD
5
1B
100
AcDbSymbolTableRecord
100
AcDbBlockTableRecord
2
*PAPER_SPACE
0
ENDTAB
0
ENDSEC
0
SECTION
2
BLOCKS
0
BLOCK
5
20
100
AcDbEntity
100
AcDbBlockBegin
2
*MODEL_SPACE
0
ENDBLK
5
21
100
AcDbEntity
100
AcDbBlockEnd
0
BLOCK
5
1C
100
AcDbEntity
100
AcDbBlockBegin
2
*PAPER_SPACE
0
ENDBLK
5
1D
100
AcDbEntity
100
AcDbBlockEnd
0
ENDSEC
0
SECTION
2
ENTITIES
0
LWPOLYLINE
5
100
100
AcDbEntity
8
0
100
AcDbPolyline
90
8
70
1
43
0.0
10
126.85000000000001
20
-2.5249999999999999
10
139.84999999999999
20
-2.5249999999999928
42
-0.41421356237309503
10
140.34999999999999
20
-3.0249999999999999
10
140.34999999999999
20
-16.024999999999999
42
-0.41421356237309503
10
139.84999999999999
20
-16.524999999999999
10
126.85000000000001
20
-16.525000000000006
42
-0.41421356237309503
10
126.34999999999999
20
-16.024999999999999
10
126.34999999999999
20
-3.0249999999999999
42
-0.41421356237309503
0
LWPOLYLINE
5
101
100
AcDbEntity
8
0
100
AcDbPolyline
90
8
70
1
43
0.0
10
145.90000000000001
20
-2.5249999999999999
10
158.90000000000001
20
-2.5249999999999928
42
-0.41421356237309503
10
159.40000000000001
20
-3.0249999999999999
10
159.40000000000001
20
-16.024999999999999
42
-0.41421356237309503
10
158.90000000000001
20
-16.524999999999999
10
145.90000000000001
20
-16.525000000000006
42
-0.41421356237309503
10
145.40000000000001
20
-16.024999999999999
10
145.40000000000001
20
-3.0249999999999999
42
-0.41421356237309503
0
LWPOLYLINE
5
102
100
AcDbEntity
8
0
100
AcDbPolyline
90
8
70
1
43
0.0
10
107.30000000000001
20
-16.024999999999999
42
0.41421356237309503
10
107.80000000000001
20
-16.525000000000002
10
120.8
20
-16.525000000000002
42
0.41421356237309503
10
121.30000000000001
20
-16.024999999999999
10
121.30000000000001
20
-3.0249999999999999
42
0.41421356237309503
10
120.8
20
-2.5249999999999999
10
107.80000000000001
20
-2.5249999999999999
42
0.41421356237309503
10
107.30000000000001
20
-3.0249999999999999
0
LWPOLYLINE
5
103
100
AcDbEntity
8
0
100
AcDbPolyline
90
8
70
1
43
0.0
10
164.44999999999999
20
-16.024999999999999
42
0.41421356237309503
10
164.95000000000002
20
-16.525000000000002
10
177.94999999999999
20
-16.525000000000002
42
0.41421356237309503
10
178.44999999999999
20
-16.024999999999999
10
178.44999999999999
20
-3.0249999999999999
42
0.41421356237309503
10
177.94999999999999
20
-2.5249999999999999
10
164.95000000000002
20
-2.5249999999999999
42
0.41421356237309503
10
164.44999999999999
20
-3.0249999999999999
0
LWPOLYLINE
5
104
100
AcDbEntity
8
0
100
AcDbPolyline
90
8
70
1
43
0.0
10
184.00000000000003
20
-2.5249999999999999
10
197.00000000000003
20
-2.5249999999999928
42
-0.41421356237309503
10
197.5
20
-3.0249999999999999
10
197.50000000000003
20
-16.024999999999999
42
-0.41421356237309503
10
197.00000000000003
20
-16.524999999999999
10
184.00000000000003
20
-16.525000000000006
42
-0.41421356237309503
10
183.5
20
-16.024999999999999
10
183.5
20
-3.0249999999999999
42
-0.41421356237309503
0
LWPOLYLINE
5
105
100
AcDbEntity
8
0
100
AcDbPolyline
90
8
70
1
43
0.0
10
202.55000000000001
20
-3.0249999999999999
10
202.55000000000001
20
-16.024999999999999
42
0.41421356237309503
10
203.05000000000004
20
-16.525000000000002
10
216.05000000000004
20
-16.525000000000002
42
0.41421356237309503
10
216.55000000000001
20
-16.024999999999999
10
216.55000000000004
20
-3.0249999999999999
42
0.41421356237309503
10
216.05000000000004
20
-2.5249999999999999
10
203.05000000000004
20
-2.5249999999999999
42
0.41421356237309503
0
LWPOLYLINE
5
106
100
AcDbEntity
8
0
100
AcDbPolyline
90
8
70
1
43
0.0
10
226.86250000000001
20
-2.5249999999999999
10
239.86250000000001
20
-2.5249999999999928
42
-0.41421356237309503
10
240.36250000000001
20
-3.0249999999999999
10
240.36250000000001
20
-16.024999999999999
42
-0.41421356237309503
10
239.86250000000001
20
-16.524999999999999
10
226.86250000000001
20
-16.525000000000006
42
-0.41421356237309503
10
226.36250000000001
20
-16.024999999999999
10
226.36250000000001
20
-3.0249999999999999
42
-0.41421356237309503
0
LWPOLYLINE
5
107
100
AcDbEntity
8
0
100
AcDbPolyline
90
8
70
1
43
0.0
10
5.40625
20
-21.575000000000003
10
23.168749999999999
20
-21.575000000000003
42
-0.41421356237309503
10
23.668749999999999
20
-22.074999999999999
10
23.668749999999999
20
-35.075000000000003
42
-0.41421356237309503
10
23.168749999999999
20
-35.575000000000003
10
5.40625
20
-35.575000000000003
42
-0.41421356237309503
10
4.90625
20
-35.075000000000003
10
4.9062500000000018
20
-22.074999999999999
42
-0.41421356237309503
0
LWPOLYLINE
5
108
100
AcDbEntity
8
0
100
AcDbPolyline
90
8
70
1
43
0.0
10
49.862499999999997
20
-22.074999999999999
10
49.862499999999997
20
-35.075000000000003
42
-0.41421356237309503
10
49.362500000000004
20
-35.575000000000003
10
36.362499999999997
20
-35.575000000000003
42
-0.41421356237309503
10
35.862500000000004
20
-35.075000000000003
10
35.862500000000004
20
-22.074999999999999
42
-0.41421356237309503
10
36.362499999999997
20
-21.575000000000003
10
49.362500000000004
20
-21.575000000000003
42
-0.41421356237309503
0
LWPOLYLINE
5
109
100
AcDbEntity
8
0
100
AcDbPolyline
90
8
70
1
43
0.0
10
55.412500000000009
20
-21.575000000000003
10
68.412499999999994
20
-21.575000000000003
42
-0.41421356237309503
10
68.912499999999994
20
-22.074999999999999
10
68.912499999999994
20
-35.075000000000003
42
-0.41421356237309503
10
68.412499999999994
20
-35.575000000000003
10
55.412500000000009
20
-35.575000000000003
42
-0.41421356237309503
10
54.912500000000009
20
-35.075000000000003
10
54.912500000000009
20
-22.074999999999999
42
-0.41421356237309503
0
LWPOLYLINE
5
110
100
AcDbEntity
8
0
100
AcDbPolyline
90
8
70
1
43
0.0
10
73.962500000000006
20
-22.074999999999999
10
73.962500000000006
20
-35.075000000000003
42
0.41421356237309503
10
74.462500000000006
20
-35.575000000000003
10
87.46250000000002
20
-35.575000000000003
42
0.41421356237309503
10
87.96250000000002
20
-35.075000000000003
10
87.96250000000002
20
-22.074999999999999
42
0.41421356237309503
10
87.46250000000002
20
-21.575000000000003
10
74.462500000000006
20
-21.575000000000003
42
0.41421356237309503
0
LWPOLYLINE
5
111
100
AcDbEntity
8
0
100
AcDbPolyline
90
8
70
1
43
0.0
10
93.512500000000003
20
-35.575000000000003
10
106.51250000000002
20
-35.575000000000003
42
0.41421356237309503
10
107.01250000000002
20
-35.075000000000003
10
107.01250000000002
20
-22.074999999999999
42
0.41421356237309503
10
106.51250000000002
20
-21.575000000000003
10
93.512500000000003
20
-21.575000000000003
42
0.41421356237309503
10
93.012499999999989
20
-22.074999999999999
10
93.012499999999989
20
-35.075000000000003
42
0.41421356237309503
0
LWPOLYLINE
5
112
100
AcDbEntity
8
0
100
AcDbPolyline
90
8
70
1
43
0.0
10
112.0625
20
-22.074999999999999
10
112.0625
20
-35.075000000000003
42
0.41421356237309503
10
112.56250000000001
20
-35.575000000000003
10
125.5625
20
-35.575000000000003
42
0.41421356237309503
10
126.06250000000001
20
-35.075000000000003
10
126.06250000000001
20
-22.074999999999999
42
0.41421356237309503
10
125.5625
20
-21.575000000000003
10
112.56250000000001
20
-21.575000000000003
42
0.41421356237309503
0
LWPOLYLINE
5
113
100
AcDbEntity
8
0
100
AcDbPolyline
90
8
70
1
43
0.0
10
131.61250000000001
20
-21.575000000000003
10
144.61250000000001
20
-21.574999999999992
42
-0.41421356237309503
10
145.11250000000001
20
-22.074999999999999
10
145.11250000000001
20
-35.075000000000003
42
-0.41421356237309503
10
144.61250000000001
20
-35.575000000000003
10
131.61250000000001
20
-35.57500000000001
42
-0.41421356237309503
10
131.11250000000001
20
-35.075000000000003
10
131.11250000000001
20
-22.074999999999999
42
-0.41421356237309503
0
LWPOLYLINE
5
114
100
AcDbEntity
8
0
100
AcDbPolyline
90
8
70
1
43
0.0
10
150.16249999999999
20
-22.074999999999999
10
150.16249999999999
20
-35.075000000000003
42
0.41421356237309503
10
150.66249999999999
20
-35.575000000000003
10
163.66250000000002
20
-35.575000000000003
42
0.41421356237309503
10
164.16250000000002
20
-35.075000000000003
10
164.16250000000002
20
-22.074999999999999
42
0.41421356237309503
10
163.66250000000002
20
-21.575000000000003
10
150.66249999999999
20
-21.575000000000003
42
0.41421356237309503
0
LWPOLYLINE
5
115
100
AcDbEntity
8
0
100
AcDbPolyline
90
8
70
1
43
0.0
10
169.71250000000001
20
-21.575000000000003
10
182.71250000000003
20
-21.574999999999992
42
-0.41421356237309503
10
183.21250000000003
20
-22.074999999999999
10
183.21250000000003
20
-35.075000000000003
42
-0.41421356237309503
10
182.71250000000003
20
-35.575000000000003
10
169.71250000000001
20
-35.57500000000001
42
-0.41421356237309503
10
169.21250000000001
20
-35.075000000000003
10
169.21250000000001
20
-22.074999999999999
42
-0.41421356237309503
0
LWPOLYLINE
5
116
100
AcDbEntity
8
0
100
AcDbPolyline
90
8
70
1
43
0.0
10
188.26249999999999
20
-22.074999999999999
10
188.26249999999999
20
-35.075000000000003
42
0.41421356237309503
10
188.76249999999999
20
-35.575000000000003
10
201.76249999999999
20
-35.575000000000003
42
0.41421356237309503
10
202.26249999999999
20
-35.075000000000003
10
202.26249999999999
20
-22.074999999999999
42
0.41421356237309503
10
201.76249999999999
20
-21.575000000000003
10
188.76249999999999
20
-21.575000000000003
42
0.41421356237309503
0
LWPOLYLINE
5
117
100
AcDbEntity
8
0
100
AcDbPolyline
90
20
70
1
43
0.0
10
217.78075000000004
20
-35.575000000000003
10
234.65675000000002
20
-35.575000000000003
10
234.65675000000002
20
-37.075000000000003
42
0.41421356237309503
10
235.15675000000002
20
-37.575000000000003
10
241.15674999999999
20
-37.575000000000003
42
0.41421356237309503
10
241.65674999999999
20
-37.075000000000003
10
241.65674999999999
20
-23.075000000000003
42
0.41421356237309503
10
241.15674999999999
20
-22.574999999999999
10
233.21875000000003
20
-22.574999999999999
10
233.21875000000003
20
-22.074999999999999
42
0.41421356237309503
10
232.71875
20
-21.575000000000003
10
219.71875
20
-21.575000000000003
42
0.41421356237309503
10
219.21875
20
-22.074999999999999
10
219.21875000000014
20
-22.575000000000024
10
211.28075000000001
20
-22.575000000000003
42
0.41421356237309503
10
210.78075000000001
20
-23.075000000000003
10
210.78075000000001
20
-37.075000000000003
42
0.41421356237309503
10
211.28075000000001
20
-37.575000000000003
10
217.28075000000004
20
-37.575000000000003
42
0.41421356237309503
10
217.78075000000004
20
-37.075000000000003
0
LWPOLYLINE
5
118
100
AcDbEntity
8
0
100
AcDbPolyline
90
20
70
1
43
0.0
10
5.40625
20
-40.625
10
39.837499999999999
20
-40.625
42
-0.41421356237309503
10
40.337500000000006
20
-41.125
10
40.337499999999991
20
-54.125000000000007
42
-0.41421356237309503
10
39.837499999999999
20
-54.625
10
36.869250000000001
20
-54.625
10
36.869250000000001
20
-56.125000000000007
42
-0.41421356237309503
10
36.369250000000001
20
-56.625000000000007
10
30.369250000000001
20
-56.625000000000007
42
-0.41421356237309503
10
29.869250000000001
20
-56.125000000000007
10
29.869250000000001
20
-54.625
10
12.99325
20
-54.625
10
12.993249999999998
20
-56.125000000000007
42
-0.41421356237309503
10
12.49325
20
-56.625000000000007
10
6.4932500000000006
20
-56.625000000000007
42
-0.41421356237309503
10
5.9932499999999997
20
-56.125000000000007
10
5.9932499999999997
20
-54.625
10
5.40625
20
-54.625
42
-0.41421356237309503
10
4.90625
20
-54.125000000000007
10
4.9062500000000018
20
-41.125
42
-0.41421356237309503
0
LWPOLYLINE
5
119
100
AcDbEntity
8
0
100
AcDbPolyline
90
8
70
1
43
0.0
10
45.887500000000003
20
-54.625
10
58.88750000000001
20
-54.625
42
0.41421356237309503
10
59.387500000000003
20
-54.125000000000007
10
59.387500000000003
20
-41.125
42
0.41421356237309503
10
58.88750000000001
20
-40.625
10
45.887500000000003
20
-40.625
42
0.41421356237309503
10
45.387500000000003
20
-41.125
10
45.387500000000003
20
-54.125000000000007
42
0.41421356237309503
0
LWPOLYLINE
5
120
100
AcDbEntity
8
0
100
AcDbPolyline
90
8
70
1
43
0.0
10
64.9375
20
-54.625
10
77.9375
20
-54.625
42
0.41421356237309503
10
78.4375
20
-54.125000000000007
10
78.4375
20
-41.125
42
0.41421356237309503
10
77.9375
20
-40.625
10
64.9375
20
-40.625
42
0.41421356237309503
10
64.4375
20
-41.125
10
64.4375
20
-54.125000000000007
42
0.41421356237309503
0
LWPOLYLINE
5
121
100
AcDbEntity
8
0
100
AcDbPolyline
90
8
70
1
43
0.0
10
83.987499999999997
20
-40.625
10
96.987500000000011
20
-40.624999999999993
42
-0.41421356237309503
10
97.487500000000011
20
-41.125
10
97.487500000000011
20
-54.125000000000007
42
-0.41421356237309503
10
96.987500000000011
20
-54.625
10
83.987499999999997
20
-54.625000000000014
42
-0.41421356237309503
10
83.487499999999983
20
-54.125000000000007
10
83.487499999999983
20
-41.125
42
-0.41421356237309503
0
LWPOLYLINE
5
122
100
AcDbEntity
8
0
100
AcDbPolyline
90
8
70
1
43
0.0
10
122.08750000000002
20
-54.625
10
135.08750000000001
20
-54.625
42
0.41421356237309503
10
135.58750000000001
20
-54.125000000000007
10
135.58750000000001
20
-41.125
42
0.41421356237309503
10
135.08750000000001
20
-40.625
10
122.08750000000002
20
-40.625
42
0.41421356237309503
10
121.58750000000001
20
-41.125
10
121.58750000000001
20
-54.125000000000007
42
0.41421356237309503
0
LWPOLYLINE
5
123
100
AcDbEntity
8
0
100
AcDbPolyline
90
8
70
1
43
0.0
10
103.03750000000001
20
-40.625
10
116.03749999999999
20
-40.624999999999993
42
-0.41421356237309503
10
116.53750000000001
20
-41.125
10
116.53749999999999
20
-54.125000000000007
42
-0.41421356237309503
10
116.03749999999999
20
-54.625
10
103.03750000000001
20
-54.625000000000014
42
-0.41421356237309503
10
102.53749999999999
20
-54.125000000000007
10
102.53749999999999
20
-41.125
42
-0.41421356237309503
0
LWPOLYLINE
5
124
100
AcDbEntity
8
0
100
AcDbPolyline
90
8
70
1
43
0.0
10
141.13749999999999
20
-40.625
10
154.13749999999999
20
-40.624999999999993
42
-0.41421356237309503
10
154.63750000000002
20
-41.125
10
154.63750000000002
20
-54.125000000000007
42
-0.41421356237309503
10
154.13749999999999
20
-54.625
10
141.13749999999999
20
-54.625000000000014
42
-0.41421356237309503
10
140.63749999999999
20
-54.125000000000007
10
140.63749999999999
20
-41.125
42
-0.41421356237309503
0
LWPOLYLINE
5
125
100
AcDbEntity
8
0
100
AcDbPolyline
90
8
70
1
43
0.0
10
160.1875
20
-40.625
10
173.1875
20
-40.624999999999993
42
-0.41421356237309503
10
173.68750000000003
20
-41.125
10
173.68750000000003
20
-54.125000000000007
42
-0.41421356237309503
10
173.1875
20
-54.625
10
160.1875
20
-54.625000000000014
42
-0.41421356237309503
10
159.6875
20
-54.125000000000007
10
159.6875
20
-41.125
42
-0.41421356237309503
0
LWPOLYLINE
5
126
100
AcDbEntity
8
0
100
AcDbPolyline
90
8
70
1
43
0.0
10
179.23750000000001
20
-40.625
10
192.23750000000001
20
-40.624999999999993
42
-0.41421356237309503
10
192.73750000000004
20
-41.125
10
192.73750000000004
20
-54.125000000000007
42
-0.41421356237309503
10
192.23750000000001
20
-54.625
10
179.23750000000001
20
-54.625000000000014
42
-0.41421356237309503
10
178.73750000000001
20
-54.125000000000007
10
178.73750000000001
20
-41.125
42
-0.41421356237309503
0
LWPOLYLINE
5
127
100
AcDbEntity
8
0
100
AcDbPolyline
90
8
70
1
43
0.0
10
205.43125000000003
20
-40.625
10
218.43125000000001
20
-40.624999999999993
42
-0.41421356237309503
10
218.93125000000001
20
-41.125
10
218.93125000000001
20
-54.125000000000007
42
-0.41421356237309503
10
218.43125000000001
20
-54.625
10
205.43125000000003
20
-54.625000000000014
42
-0.41421356237309503
10
204.93125000000003
20
-54.125000000000007
10
204.93125000000003
20
-41.125
42
-0.41421356237309503
0
LWPOLYLINE
5
128
100
AcDbEntity
8
0
100
AcDbPolyline
90
8
70
1
43
0.0
10
231.625
20
-40.625
10
244.62500000000003
20
-40.624999999999993
42
-0.41421356237309503
10
245.12500000000003
20
-41.125
10
245.12500000000003
20
-54.125000000000007
42
-0.41421356237309503
10
244.62500000000003
20
-54.625
10
231.625
20
-54.625000000000014
42
-0.41421356237309503
10
231.125
20
-54.125000000000007
10
231.125
20
-41.125
42
-0.41421356237309503
0
LWPOLYLINE
5
129
100
AcDbEntity
8
0
100
AcDbPolyline
90
8
70
1
43
0.0
10
5.40625
20
-59.675000000000004
10
18.40625
20
-59.675000000000004
42
-0.41421356237309503
10
18.906250000000004
20
-60.174999999999997
10
18.90625
20
-73.174999999999997
42
-0.41421356237309503
10
18.40625
20
-73.674999999999997
10
5.40625
20
-73.674999999999997
42
-0.41421356237309503
10
4.90625
20
-73.174999999999997
10
4.9062500000000018
20
-60.174999999999997
42
-0.41421356237309503
0
LWPOLYLINE
5
130
100
AcDbEntity
8
0
100
AcDbPolyline
90
8
70
1
43
0.0
10
52.243750000000006
20
-60.174999999999997
42
0.41421356237309503
10
51.743750000000006
20
-59.675000000000004
10
36.362499999999997
20
-59.675000000000004
42
0.41421356237309503
10
35.862499999999997
20
-60.174999999999997
10
35.862500000000004
20
-73.174999999999997
42
0.41421356237309503
10
36.362499999999997
20
-73.674999999999997
10
51.743750000000006
20
-73.674999999999997
42
0.41421356237309503
10
52.243750000000006
20
-73.174999999999997
0
LWPOLYLINE
5
131
100
AcDbEntity
8
0
100
AcDbPolyline
90
44
70
1
43
0.0
10
57.79375000000001
20
-59.675000000000004
42
0.41421356237309503
10
57.29375000000001
20
-60.174999999999997
10
57.29375000000001
20
-73.174999999999997
42
0.41421356237309503
10
57.79375000000001
20
-73.674999999999997
10
189.85624999999999
20
-73.674999999999997
42
0.41421356237309503
10
190.35624999999999
20
-73.174999999999997
10
190.35624999999999
20
-60.174999999999997
42
0.41421356237309503
10
189.85624999999999
20
-59.675000000000004
10
184.47500000000002
20
-59.675000000000004
10
184.47500000000002
20
-58.174999999999997
42
0.41421356237309503
10
183.97500000000002
20
-57.674999999999997
10
177.97499999999999
20
-57.674999999999997
42
0.41421356237309503
10
177.47499999999999
20
-58.174999999999997
10
177.47499999999999
20
-59.675000000000004
10
167.83800000000019
20
-59.675000000000026
10
167.83799999999999
20
-58.174999999999997
42
0.41421356237309503
10
167.33799999999999
20
-57.674999999999997
10
154.19425000000001
20
-57.674999999999997
42
0.41421356237309503
10
153.69425000000001
20
-58.174999999999997
10
153.69425000000001
20
-59.675000000000004
10
143.96200000000002
20
-59.675000000000004
10
143.96200000000005
20
-58.174999999999997
42
0.41421356237309503
10
143.46200000000005
20
-57.674999999999997
10
130.31825000000001
20
-57.674999999999997
42
0.41421356237309503
10
129.81825000000001
20
-58.174999999999997
10
129.81825000000001
20
-59.675000000000004
10
113.06925
20
-59.675000000000004
10
113.06925000000001
20
-58.174999999999997
42
0.41421356237309503
10
112.56925000000001
20
-57.674999999999997
10
104.18799999999999
20
-57.674999999999997
42
0.41421356237309503
10
103.68799999999999
20
-58.174999999999997
10
103.68799999999999
20
-59.675000000000004
10
89.193250000000006
20
-59.675000000000004
10
89.19325000000002
20
-58.174999999999997
42
0.41421356237309503
10
88.69325000000002
20
-57.674999999999997
10
80.311999999999998
20
-57.674999999999997
42
0.41421356237309503
10
79.811999999999998
20
-58.174999999999997
10
79.811999999999998
20
-59.67500000000004
10
70.174999999999997
20
-59.675000000000004
10
70.174999999999997
20
-58.174999999999997
42
0.41421356237309503
10
69.674999999999997
20
-57.674999999999997
10
58.918750000000003
20
-57.674999999999997
42
0.41421356237309503
10
58.41875000000001
20
-58.174999999999997
10
58.41875000000001
20
-59.675000000000004
0
LINE
5
132
100
AcDbEntity
8
0
100
AcDbLine
10
103.68799999999999
20
-59.675000000000004
30
0
11
103.68799999999999
21
-58.174999999999997
31
0
0
ARC
5
133
100
AcDbEntity
8
0
100
AcDbCircle
10
104.18799999999999
20
-58.174999999999997
30
0
40
0.49999999999999822
210
0
220
-0
230
1
100
AcDbArc
50
90
51
180
0
LWPOLYLINE
5
134
100
AcDbEntity
8
0
100
AcDbPolyline
90
8
70
1
43
0.0
10
7.7875000000000005
20
-2.5249999999999999
42
0.41421356237309503
10
7.2874999999999996
20
-3.0249999999999999
10
7.2874999999999996
20
-16.024999999999999
42
0.41421356237309503
10
7.7875000000000005
20
-16.524999999999999
10
20.787500000000001
20
-16.525000000000002
42
0.41421356237309503
10
21.287500000000001
20
-16.024999999999999
10
21.287500000000001
20
-3.0249999999999999
42
0.41421356237309503
10
20.787500000000001
20
-2.5249999999999999
0
LWPOLYLINE
5
135
100
AcDbEntity
8
0
100
AcDbPolyline
90
8
70
1
43
0.0
10
31.600000000000001
20
-2.5249999999999999
10
44.600000000000001
20
-2.5250000000000017
42
-0.41421356237309503
10
45.100000000000009
20
-3.0249999999999999
10
45.099999999999994
20
-16.024999999999999
42
-0.41421356237309503
10
44.600000000000001
20
-16.525000000000002
10
31.600000000000001
20
-16.524999999999999
42
-0.41421356237309503
10
31.100000000000001
20
-16.024999999999999
10
31.100000000000001
20
-3.0249999999999999
42
-0.41421356237309503
0
LWPOLYLINE
5
136
100
AcDbEntity
8
0
100
AcDbPolyline
90
8
70
1
43
0.0
10
50.650000000000006
20
-2.5249999999999999
10
63.650000000000006
20
-2.5250000000000017
42
-0.41421356237309503
10
64.150000000000006
20
-3.0249999999999999
10
64.150000000000006
20
-16.024999999999999
42
-0.41421356237309503
10
63.650000000000006
20
-16.524999999999999
10
50.650000000000006
20
-16.524999999999999
42
-0.41421356237309503
10
50.150000000000006
20
-16.024999999999999
10
50.150000000000006
20
-3.0249999999999999
42
-0.41421356237309503
0
LWPOLYLINE
5
137
100
AcDbEntity
8
0
100
AcDbPolyline
90
8
70
1
43
0.0
10
69.700000000000003
20
-2.5249999999999999
10
82.700000000000017
20
-2.5249999999999928
42
-0.41421356237309503
10
83.200000000000003
20
-3.0249999999999999
10
83.200000000000017
20
-16.024999999999999
42
-0.41421356237309503
10
82.700000000000017
20
-16.524999999999999
10
69.700000000000003
20
-16.524999999999999
42
-0.41421356237309503
10
69.200000000000003
20
-16.024999999999999
10
69.200000000000003
20
-3.0249999999999999
42
-0.41421356237309503
0
LWPOLYLINE
5
138
100
AcDbEntity
8
0
100
AcDbPolyline
90
8
70
1
43
0.0
10
88.75
20
-2.5249999999999999
10
101.75
20
-2.5249999999999928
42
-0.41421356237309503
10
102.25000000000001
20
-3.0249999999999999
10
102.25000000000001
20
-16.024999999999999
42
-0.41421356237309503
10
101.75
20
-16.524999999999999
10
88.75
20
-16.525000000000006
42
-0.41421356237309503
10
88.250000000000014
20
-16.024999999999999
10
88.25
20
-3.0249999999999999
42
-0.41421356237309503
0
LINE
5
139
100
AcDbEntity
8
0
100
AcDbLine
10
143.96200000000002
20
-59.675000000000004
30
0
11
143.96200000000002
21
-58.174999999999997
31
0
0
ARC
5
140
100
AcDbEntity
8
0
100
AcDbCircle
10
143.46200000000005
20
-58.174999999999997
30
0
40
0.50000000000000711
210
0
220
0
230
1
100
AcDbArc
50
0
51
90
0
LWPOLYLINE
5
141
100
AcDbEntity
8
0
100
AcDbPolyline
90
8
70
1
43
0.0
10
195.90625000000003
20
-73.674999999999997
10
211.28749999999999
20
-73.674999999999997
42
0.41421356237309503
10
211.78750000000002
20
-73.174999999999997
10
211.78750000000002
20
-60.174999999999997
42
0.41421356237309503
10
211.28749999999999
20
-59.675000000000004
10
195.90625000000003
20
-59.675000000000004
42
0.41421356237309503
10
195.40625000000003
20
-60.174999999999997
10
195.40625000000003
20
-73.174999999999997
42
0.41421356237309503
0
LWPOLYLINE
5
142
100
AcDbEntity
8
0
100
AcDbPolyline
90
8
70
1
43
0.0
10
229.24375000000001
20
-59.675000000000004
10
242.24375000000003
20
-59.674999999999997
42
-0.41421356237309503
10
242.74375000000003
20
-60.174999999999997
10
242.74375000000003
20
-73.174999999999997
42
-0.41421356237309503
10
242.24375000000003
20
-73.674999999999997
10
229.24375000000001
20
-73.675000000000011
42
-0.41421356237309503
10
228.74375000000001
20
-73.174999999999997
10
228.74375000000001
20
-60.174999999999997
42
-0.41421356237309503
0
LWPOLYLINE
5
143
100
AcDbEntity
8
0
100
AcDbPolyline
90
4
70
1
43
0.0
10
247.65000000000001
20
-76.200000000000017
10
247.65000000000001
20
0
10
0
20
0
10
0
20
-76.200000000000017
0
ENDSEC
0
SECTION
2
OBJECTS
0
DICTIONARY
5
C
100
AcDbDictionary
3
ACAD_GROUP
350
D
3
ACAD_MLINESTYLE
350
17
0
DICTIONARY
5
D
100
AcDbDictionary
0
DICTIONARY
5
1A
330
C
100
AcDbDictionary
0
DICTIONARY
5
17
100
AcDbDictionary
0
ENDSEC
0
EOF
